<svg width="1363" height="167" viewBox="0 0 1363 167" fill="none" xmlns="http://www.w3.org/2000/svg">
<rect width="1363" height="167" rx="15" fill="#F0F0F0"/>
<path d="M0 15C0 6.71573 6.71573 0 15 0H37V167H15C6.71573 167 0 160.284 0 152V15Z" fill="#424241"/>
<path d="M100.906 54.9219L93.3945 52.2383V49.0859L103.602 53.375V55.6367L100.906 54.9219ZM93.3945 57.1719L100.918 54.4297L103.602 53.7852V56.0352L93.3945 60.3242V57.1719ZM116.012 59.293L119.41 44.9375H121.309L121.742 47.3281L118.121 62H116.082L116.012 59.293ZM114.266 44.9375L117.078 59.293L116.844 62H114.57L110.785 44.9375H114.266ZM124.73 59.2344L127.508 44.9375H130.988L127.215 62H124.941L124.73 59.2344ZM122.375 44.9375L125.797 59.3516L125.703 62H123.664L120.02 47.3164L120.488 44.9375H122.375ZM138.148 62.2344C137.164 62.2344 136.281 62.0781 135.5 61.7656C134.719 61.4453 134.055 61.0039 133.508 60.4414C132.969 59.8789 132.555 59.2266 132.266 58.4844C131.977 57.7344 131.832 56.9375 131.832 56.0938V55.625C131.832 54.6641 131.969 53.7852 132.242 52.9883C132.516 52.1914 132.906 51.5 133.414 50.9141C133.93 50.3281 134.555 49.8789 135.289 49.5664C136.023 49.2461 136.852 49.0859 137.773 49.0859C138.672 49.0859 139.469 49.2344 140.164 49.5312C140.859 49.8281 141.441 50.25 141.91 50.7969C142.387 51.3438 142.746 52 142.988 52.7656C143.23 53.5234 143.352 54.3672 143.352 55.2969V56.7031H133.273V54.4531H140.035V54.1953C140.035 53.7266 139.949 53.3086 139.777 52.9414C139.613 52.5664 139.363 52.2695 139.027 52.0508C138.691 51.832 138.262 51.7227 137.738 51.7227C137.293 51.7227 136.91 51.8203 136.59 52.0156C136.27 52.2109 136.008 52.4844 135.805 52.8359C135.609 53.1875 135.461 53.6016 135.359 54.0781C135.266 54.5469 135.219 55.0625 135.219 55.625V56.0938C135.219 56.6016 135.289 57.0703 135.43 57.5C135.578 57.9297 135.785 58.3008 136.051 58.6133C136.324 58.9258 136.652 59.168 137.035 59.3398C137.426 59.5117 137.867 59.5977 138.359 59.5977C138.969 59.5977 139.535 59.4805 140.059 59.2461C140.59 59.0039 141.047 58.6406 141.43 58.1562L143.07 59.9375C142.805 60.3203 142.441 60.6875 141.98 61.0391C141.527 61.3906 140.98 61.6797 140.34 61.9062C139.699 62.125 138.969 62.2344 138.148 62.2344ZM148.578 52.0273V62H145.203V49.3203H148.367L148.578 52.0273ZM148.086 55.2148H147.172C147.172 54.2773 147.293 53.4336 147.535 52.6836C147.777 51.9258 148.117 51.2812 148.555 50.75C148.992 50.2109 149.512 49.8008 150.113 49.5195C150.723 49.2305 151.402 49.0859 152.152 49.0859C152.746 49.0859 153.289 49.1719 153.781 49.3438C154.273 49.5156 154.695 49.7891 155.047 50.1641C155.406 50.5391 155.68 51.0352 155.867 51.6523C156.062 52.2695 156.16 53.0234 156.16 53.9141V62H152.762V53.9023C152.762 53.3398 152.684 52.9023 152.527 52.5898C152.371 52.2773 152.141 52.0586 151.836 51.9336C151.539 51.8008 151.172 51.7344 150.734 51.7344C150.281 51.7344 149.887 51.8242 149.551 52.0039C149.223 52.1836 148.949 52.4336 148.73 52.7539C148.52 53.0664 148.359 53.4336 148.25 53.8555C148.141 54.2773 148.086 54.7305 148.086 55.2148ZM169.027 59.293L172.426 44.9375H174.324L174.758 47.3281L171.137 62H169.098L169.027 59.293ZM167.281 44.9375L170.094 59.293L169.859 62H167.586L163.801 44.9375H167.281ZM177.746 59.2344L180.523 44.9375H184.004L180.23 62H177.957L177.746 59.2344ZM175.391 44.9375L178.812 59.3516L178.719 62H176.68L173.035 47.3164L173.504 44.9375H175.391ZM192.148 59.1406V53.4922C192.148 53.0859 192.082 52.7383 191.949 52.4492C191.816 52.1523 191.609 51.9219 191.328 51.7578C191.055 51.5938 190.699 51.5117 190.262 51.5117C189.887 51.5117 189.562 51.5781 189.289 51.7109C189.016 51.8359 188.805 52.0195 188.656 52.2617C188.508 52.4961 188.434 52.7734 188.434 53.0938H185.059C185.059 52.5547 185.184 52.043 185.434 51.5586C185.684 51.0742 186.047 50.6484 186.523 50.2812C187 49.9062 187.566 49.6133 188.223 49.4023C188.887 49.1914 189.629 49.0859 190.449 49.0859C191.434 49.0859 192.309 49.25 193.074 49.5781C193.84 49.9062 194.441 50.3984 194.879 51.0547C195.324 51.7109 195.547 52.5312 195.547 53.5156V58.9414C195.547 59.6367 195.59 60.207 195.676 60.6523C195.762 61.0898 195.887 61.4727 196.051 61.8008V62H192.641C192.477 61.6562 192.352 61.2266 192.266 60.7109C192.188 60.1875 192.148 59.6641 192.148 59.1406ZM192.594 54.2773L192.617 56.1875H190.73C190.285 56.1875 189.898 56.2383 189.57 56.3398C189.242 56.4414 188.973 56.5859 188.762 56.7734C188.551 56.9531 188.395 57.1641 188.293 57.4062C188.199 57.6484 188.152 57.9141 188.152 58.2031C188.152 58.4922 188.219 58.7539 188.352 58.9883C188.484 59.2148 188.676 59.3945 188.926 59.5273C189.176 59.6523 189.469 59.7148 189.805 59.7148C190.312 59.7148 190.754 59.6133 191.129 59.4102C191.504 59.207 191.793 58.957 191.996 58.6602C192.207 58.3633 192.316 58.082 192.324 57.8164L193.215 59.2461C193.09 59.5664 192.918 59.8984 192.699 60.2422C192.488 60.5859 192.219 60.9102 191.891 61.2148C191.562 61.5117 191.168 61.7578 190.707 61.9531C190.246 62.1406 189.699 62.2344 189.066 62.2344C188.262 62.2344 187.531 62.0742 186.875 61.7539C186.227 61.4258 185.711 60.9766 185.328 60.4062C184.953 59.8281 184.766 59.1719 184.766 58.4375C184.766 57.7734 184.891 57.1836 185.141 56.668C185.391 56.1523 185.758 55.7188 186.242 55.3672C186.734 55.0078 187.348 54.7383 188.082 54.5586C188.816 54.3711 189.668 54.2773 190.637 54.2773H192.594ZM205.004 58.4961C205.004 58.2539 204.934 58.0352 204.793 57.8398C204.652 57.6445 204.391 57.4648 204.008 57.3008C203.633 57.1289 203.09 56.9727 202.379 56.832C201.738 56.6914 201.141 56.5156 200.586 56.3047C200.039 56.0859 199.562 55.8242 199.156 55.5195C198.758 55.2148 198.445 54.8555 198.219 54.4414C197.992 54.0195 197.879 53.5391 197.879 53C197.879 52.4688 197.992 51.9688 198.219 51.5C198.453 51.0312 198.785 50.6172 199.215 50.2578C199.652 49.8906 200.184 49.6055 200.809 49.4023C201.441 49.1914 202.152 49.0859 202.941 49.0859C204.043 49.0859 204.988 49.2617 205.777 49.6133C206.574 49.9648 207.184 50.4492 207.605 51.0664C208.035 51.6758 208.25 52.3711 208.25 53.1523H204.875C204.875 52.8242 204.805 52.5312 204.664 52.2734C204.531 52.0078 204.32 51.8008 204.031 51.6523C203.75 51.4961 203.383 51.418 202.93 51.418C202.555 51.418 202.23 51.4844 201.957 51.6172C201.684 51.7422 201.473 51.9141 201.324 52.1328C201.184 52.3438 201.113 52.5781 201.113 52.8359C201.113 53.0312 201.152 53.207 201.23 53.3633C201.316 53.5117 201.453 53.6484 201.641 53.7734C201.828 53.8984 202.07 54.0156 202.367 54.125C202.672 54.2266 203.047 54.3203 203.492 54.4062C204.406 54.5938 205.223 54.8398 205.941 55.1445C206.66 55.4414 207.23 55.8477 207.652 56.3633C208.074 56.8711 208.285 57.5391 208.285 58.3672C208.285 58.9297 208.16 59.4453 207.91 59.9141C207.66 60.3828 207.301 60.793 206.832 61.1445C206.363 61.4883 205.801 61.7578 205.145 61.9531C204.496 62.1406 203.766 62.2344 202.953 62.2344C201.773 62.2344 200.773 62.0234 199.953 61.6016C199.141 61.1797 198.523 60.6445 198.102 59.9961C197.688 59.3398 197.48 58.668 197.48 57.9805H200.68C200.695 58.4414 200.812 58.8125 201.031 59.0938C201.258 59.375 201.543 59.5781 201.887 59.7031C202.238 59.8281 202.617 59.8906 203.023 59.8906C203.461 59.8906 203.824 59.832 204.113 59.7148C204.402 59.5898 204.621 59.4258 204.77 59.2227C204.926 59.0117 205.004 58.7695 205.004 58.4961ZM216.312 62.2344C215.328 62.2344 214.445 62.0781 213.664 61.7656C212.883 61.4453 212.219 61.0039 211.672 60.4414C211.133 59.8789 210.719 59.2266 210.43 58.4844C210.141 57.7344 209.996 56.9375 209.996 56.0938V55.625C209.996 54.6641 210.133 53.7852 210.406 52.9883C210.68 52.1914 211.07 51.5 211.578 50.9141C212.094 50.3281 212.719 49.8789 213.453 49.5664C214.188 49.2461 215.016 49.0859 215.938 49.0859C216.836 49.0859 217.633 49.2344 218.328 49.5312C219.023 49.8281 219.605 50.25 220.074 50.7969C220.551 51.3438 220.91 52 221.152 52.7656C221.395 53.5234 221.516 54.3672 221.516 55.2969V56.7031H211.438V54.4531H218.199V54.1953C218.199 53.7266 218.113 53.3086 217.941 52.9414C217.777 52.5664 217.527 52.2695 217.191 52.0508C216.855 51.832 216.426 51.7227 215.902 51.7227C215.457 51.7227 215.074 51.8203 214.754 52.0156C214.434 52.2109 214.172 52.4844 213.969 52.8359C213.773 53.1875 213.625 53.6016 213.523 54.0781C213.43 54.5469 213.383 55.0625 213.383 55.625V56.0938C213.383 56.6016 213.453 57.0703 213.594 57.5C213.742 57.9297 213.949 58.3008 214.215 58.6133C214.488 58.9258 214.816 59.168 215.199 59.3398C215.59 59.5117 216.031 59.5977 216.523 59.5977C217.133 59.5977 217.699 59.4805 218.223 59.2461C218.754 59.0039 219.211 58.6406 219.594 58.1562L221.234 59.9375C220.969 60.3203 220.605 60.6875 220.145 61.0391C219.691 61.3906 219.145 61.6797 218.504 61.9062C217.863 62.125 217.133 62.2344 216.312 62.2344ZM227 44V62H223.613V44H227Z" fill="#888888"/>
<path d="M115.994 98.708V104.641H99.5806V98.708H115.994ZM102.151 86.0078V118H94.439V86.0078H102.151ZM121.18 86.0078V118H113.489V86.0078H121.18ZM124.805 106.354V105.893C124.805 104.15 125.054 102.546 125.552 101.081C126.05 99.6016 126.783 98.3198 127.75 97.2358C128.716 96.1519 129.91 95.3096 131.331 94.709C132.752 94.0938 134.393 93.7861 136.253 93.7861C138.128 93.7861 139.776 94.0938 141.197 94.709C142.632 95.3096 143.833 96.1519 144.8 97.2358C145.767 98.3198 146.5 99.6016 146.998 101.081C147.496 102.546 147.745 104.15 147.745 105.893V106.354C147.745 108.083 147.496 109.687 146.998 111.167C146.5 112.631 145.767 113.913 144.8 115.012C143.833 116.096 142.64 116.938 141.219 117.539C139.798 118.139 138.157 118.439 136.297 118.439C134.437 118.439 132.789 118.139 131.353 117.539C129.917 116.938 128.716 116.096 127.75 115.012C126.783 113.913 126.05 112.631 125.552 111.167C125.054 109.687 124.805 108.083 124.805 106.354ZM132.21 105.893V106.354C132.21 107.248 132.276 108.083 132.408 108.859C132.54 109.636 132.759 110.317 133.067 110.903C133.375 111.474 133.792 111.921 134.319 112.243C134.847 112.565 135.506 112.727 136.297 112.727C137.073 112.727 137.718 112.565 138.23 112.243C138.758 111.921 139.175 111.474 139.483 110.903C139.791 110.317 140.01 109.636 140.142 108.859C140.274 108.083 140.34 107.248 140.34 106.354V105.893C140.34 105.029 140.274 104.216 140.142 103.454C140.01 102.678 139.791 101.997 139.483 101.411C139.175 100.81 138.758 100.341 138.23 100.004C137.703 99.6675 137.044 99.499 136.253 99.499C135.477 99.499 134.825 99.6675 134.297 100.004C133.785 100.341 133.375 100.81 133.067 101.411C132.759 101.997 132.54 102.678 132.408 103.454C132.276 104.216 132.21 105.029 132.21 105.893ZM158.27 110.925L162.664 94.2256H167.3L165.652 102.597L161.302 118H157.588L158.27 110.925ZM156.534 94.2256L159.258 110.793L159.566 118H155.062L149.437 94.2256H156.534ZM171.211 110.441L173.958 94.2256H181.055L175.474 118H170.97L171.211 110.441ZM167.828 94.2256L172.266 110.881L172.947 118H169.19L164.927 102.641L163.345 94.2256H167.828ZM209.466 86.0078V118H201.753V86.0078H209.466ZM219.09 86.0078V91.9624H192.349V86.0078H219.09ZM216.475 106.354V105.893C216.475 104.15 216.724 102.546 217.222 101.081C217.72 99.6016 218.453 98.3198 219.419 97.2358C220.386 96.1519 221.58 95.3096 223.001 94.709C224.422 94.0938 226.062 93.7861 227.923 93.7861C229.798 93.7861 231.446 94.0938 232.867 94.709C234.302 95.3096 235.503 96.1519 236.47 97.2358C237.437 98.3198 238.169 99.6016 238.667 101.081C239.166 102.546 239.415 104.15 239.415 105.893V106.354C239.415 108.083 239.166 109.687 238.667 111.167C238.169 112.631 237.437 113.913 236.47 115.012C235.503 116.096 234.31 116.938 232.889 117.539C231.468 118.139 229.827 118.439 227.967 118.439C226.106 118.439 224.458 118.139 223.023 117.539C221.587 116.938 220.386 116.096 219.419 115.012C218.453 113.913 217.72 112.631 217.222 111.167C216.724 109.687 216.475 108.083 216.475 106.354ZM223.88 105.893V106.354C223.88 107.248 223.946 108.083 224.078 108.859C224.209 109.636 224.429 110.317 224.737 110.903C225.044 111.474 225.462 111.921 225.989 112.243C226.517 112.565 227.176 112.727 227.967 112.727C228.743 112.727 229.388 112.565 229.9 112.243C230.428 111.921 230.845 111.474 231.153 110.903C231.46 110.317 231.68 109.636 231.812 108.859C231.944 108.083 232.01 107.248 232.01 106.354V105.893C232.01 105.029 231.944 104.216 231.812 103.454C231.68 102.678 231.46 101.997 231.153 101.411C230.845 100.81 230.428 100.341 229.9 100.004C229.373 99.6675 228.714 99.499 227.923 99.499C227.146 99.499 226.495 99.6675 225.967 100.004C225.455 100.341 225.044 100.81 224.737 101.411C224.429 101.997 224.209 102.678 224.078 103.454C223.946 104.216 223.88 105.029 223.88 105.893ZM254.268 86.0078H266.858C269.319 86.0078 271.458 86.374 273.274 87.1064C275.091 87.8389 276.49 88.9229 277.471 90.3584C278.467 91.7939 278.965 93.5664 278.965 95.6758C278.965 97.5068 278.68 99.0376 278.108 100.268C277.537 101.499 276.739 102.517 275.713 103.322C274.703 104.113 273.523 104.765 272.176 105.278L269.649 106.706H259.08L259.036 100.751H266.858C267.84 100.751 268.653 100.576 269.297 100.224C269.942 99.8726 270.425 99.3745 270.748 98.73C271.084 98.0708 271.253 97.2871 271.253 96.3789C271.253 95.4561 271.084 94.665 270.748 94.0059C270.411 93.3467 269.913 92.8413 269.253 92.4897C268.609 92.1382 267.811 91.9624 266.858 91.9624H261.98V118H254.268V86.0078ZM271.78 118L264.705 103.85L272.879 103.806L280.042 117.67V118H271.78ZM297.159 112.221V94.2256H304.585V118H297.642L297.159 112.221ZM297.862 107.387L299.795 107.343C299.795 108.94 299.605 110.419 299.224 111.782C298.843 113.129 298.279 114.301 297.532 115.297C296.8 116.293 295.892 117.07 294.808 117.626C293.738 118.168 292.5 118.439 291.094 118.439C289.922 118.439 288.846 118.278 287.864 117.956C286.897 117.619 286.062 117.099 285.359 116.396C284.656 115.678 284.107 114.763 283.711 113.649C283.331 112.521 283.14 111.174 283.14 109.606V94.2256H290.545V109.65C290.545 110.178 290.611 110.632 290.743 111.013C290.875 111.394 291.065 111.716 291.314 111.979C291.563 112.229 291.871 112.419 292.237 112.551C292.618 112.668 293.05 112.727 293.533 112.727C294.646 112.727 295.518 112.492 296.148 112.023C296.778 111.555 297.217 110.917 297.466 110.112C297.73 109.306 297.862 108.398 297.862 107.387ZM315.945 99.3013V118H308.541V94.2256H315.484L315.945 99.3013ZM315.066 105.3L313.331 105.344C313.331 103.527 313.55 101.909 313.99 100.488C314.429 99.0522 315.052 97.8364 315.857 96.8403C316.663 95.8442 317.623 95.0898 318.736 94.5771C319.864 94.0498 321.116 93.7861 322.493 93.7861C323.592 93.7861 324.595 93.9473 325.503 94.2695C326.426 94.5918 327.217 95.1118 327.876 95.8296C328.55 96.5474 329.063 97.4995 329.415 98.686C329.781 99.8579 329.964 101.308 329.964 103.037V118H322.515V103.015C322.515 102.062 322.383 101.337 322.12 100.839C321.856 100.327 321.475 99.9751 320.977 99.7847C320.479 99.5942 319.871 99.499 319.153 99.499C318.392 99.499 317.747 99.6455 317.22 99.9385C316.692 100.231 316.268 100.642 315.945 101.169C315.638 101.682 315.411 102.29 315.264 102.993C315.132 103.696 315.066 104.465 315.066 105.3ZM345.85 107.871H339.544C339.544 106.582 339.632 105.446 339.808 104.465C339.998 103.469 340.32 102.575 340.774 101.784C341.229 100.993 341.844 100.261 342.62 99.5869C343.309 99.0156 343.902 98.4663 344.4 97.939C344.898 97.4116 345.279 96.877 345.542 96.335C345.806 95.793 345.938 95.2144 345.938 94.5991C345.938 93.8374 345.828 93.2148 345.608 92.7314C345.403 92.248 345.088 91.8892 344.664 91.6548C344.253 91.4058 343.733 91.2812 343.104 91.2812C342.591 91.2812 342.107 91.4058 341.653 91.6548C341.214 91.9038 340.855 92.292 340.577 92.8193C340.298 93.332 340.145 94.0132 340.115 94.8628H332.667C332.71 92.6802 333.194 90.9077 334.117 89.5454C335.054 88.1685 336.299 87.165 337.852 86.5352C339.419 85.8906 341.17 85.5684 343.104 85.5684C345.242 85.5684 347.081 85.8979 348.619 86.5571C350.157 87.2163 351.336 88.1978 352.156 89.5015C352.977 90.7905 353.387 92.3799 353.387 94.2695C353.387 95.5293 353.145 96.6279 352.662 97.5654C352.193 98.4883 351.556 99.3525 350.75 100.158C349.959 100.949 349.073 101.799 348.091 102.707C347.242 103.454 346.663 104.216 346.355 104.992C346.048 105.754 345.879 106.713 345.85 107.871ZM338.643 114.55C338.643 113.496 339.024 112.617 339.786 111.914C340.547 111.196 341.536 110.837 342.752 110.837C343.968 110.837 344.957 111.196 345.718 111.914C346.48 112.617 346.861 113.496 346.861 114.55C346.861 115.605 346.48 116.491 345.718 117.209C344.957 117.912 343.968 118.264 342.752 118.264C341.536 118.264 340.547 117.912 339.786 117.209C339.024 116.491 338.643 115.605 338.643 114.55Z" fill="#424241"/>
<path d="M1363 15C1363 6.71573 1356.28 0 1348 0H1134V167H1348C1356.28 167 1363 160.284 1363 152V15Z" fill="#FF9E0D"/>
<path d="M1260.77 81.3079C1263.96 81.3079 1267.09 82.2553 1269.74 84.0303C1272.4 85.8053 1274.47 88.3282 1275.69 91.2799C1276.92 94.2316 1277.24 97.4796 1276.61 100.613C1275.99 103.747 1274.45 106.625 1272.19 108.884C1269.93 111.143 1267.05 112.682 1263.92 113.305C1260.79 113.928 1257.54 113.608 1254.59 112.386C1251.64 111.163 1249.11 109.093 1247.34 106.436C1245.56 103.78 1244.62 100.657 1244.62 97.4617C1244.62 93.1774 1246.32 89.0686 1249.35 86.0392C1252.38 83.0098 1256.48 81.3079 1260.77 81.3079ZM1260.77 75.9233C1256.51 75.9233 1252.35 77.1865 1248.8 79.5532C1245.26 81.9198 1242.5 85.2837 1240.87 89.2193C1239.24 93.1549 1238.81 97.4856 1239.64 101.664C1240.48 105.842 1242.53 109.679 1245.54 112.692C1248.55 115.704 1252.39 117.755 1256.57 118.586C1260.75 119.417 1265.08 118.991 1269.01 117.361C1272.95 115.73 1276.31 112.97 1278.68 109.428C1281.04 105.886 1282.31 101.722 1282.31 97.4617C1282.31 91.7493 1280.04 86.271 1276 82.2317C1271.96 78.1925 1266.48 75.9233 1260.77 75.9233Z" fill="white"/>
<path d="M1274.23 49H1220.38C1218.96 49 1217.59 49.5673 1216.58 50.5771C1215.57 51.5869 1215 52.9565 1215 54.3846V108.231C1215 109.659 1215.57 111.028 1216.58 112.038C1217.59 113.048 1218.96 113.615 1220.38 113.615H1231.15V108.231H1220.38V70.5384H1279.62V54.3846C1279.62 52.9565 1279.05 51.5869 1278.04 50.5771C1277.03 49.5673 1275.66 49 1274.23 49ZM1220.38 65.1538V54.3846H1274.23V65.1538H1220.38Z" fill="white"/>
<path d="M1255.38 89.3849V105.539L1268.85 97.4618L1255.38 89.3849Z" fill="white"/>
</svg>
