<svg width="1363" height="301" viewBox="0 0 1363 301" fill="none" xmlns="http://www.w3.org/2000/svg">
<rect width="1363" height="301" rx="15" fill="#F0F0F0"/>
<path d="M0 15C0 6.71573 6.71573 0 15 0H37V301H15C6.71573 301 0 294.284 0 286V15Z" fill="#00DD02"/>
<path d="M104.004 140.455L111.792 104.898H116.438L118.963 107.933L110.665 144H105.535L104.004 140.455ZM101.937 104.898L108.516 140.724L106.824 144H100.889L92.5908 104.898H101.937ZM123.233 140.536L129.759 104.898H139.078L130.779 144H124.871L123.233 140.536ZM119.795 104.898L127.771 140.67L126.16 144H121.031L112.544 107.879L115.176 104.898H119.795ZM155.567 144.537C153.204 144.537 151.091 144.17 149.229 143.436C147.367 142.684 145.792 141.655 144.502 140.348C143.231 139.041 142.256 137.537 141.575 135.836C140.913 134.135 140.582 132.336 140.582 130.438V129.417C140.582 127.287 140.877 125.318 141.468 123.509C142.059 121.683 142.936 120.09 144.1 118.729C145.263 117.368 146.722 116.312 148.477 115.56C150.232 114.79 152.273 114.405 154.6 114.405C156.659 114.405 158.503 114.736 160.132 115.399C161.762 116.061 163.14 117.01 164.268 118.246C165.414 119.481 166.282 120.976 166.873 122.73C167.482 124.485 167.786 126.454 167.786 128.639V132.318H144.046V126.651H158.951V125.953C158.969 124.986 158.799 124.163 158.44 123.482C158.1 122.802 157.599 122.283 156.937 121.925C156.274 121.567 155.468 121.388 154.52 121.388C153.535 121.388 152.72 121.603 152.076 122.032C151.449 122.462 150.957 123.053 150.599 123.805C150.258 124.539 150.017 125.389 149.874 126.356C149.73 127.323 149.659 128.343 149.659 129.417V130.438C149.659 131.512 149.802 132.488 150.088 133.365C150.393 134.243 150.822 134.994 151.377 135.621C151.95 136.23 152.631 136.704 153.418 137.044C154.224 137.385 155.137 137.555 156.158 137.555C157.393 137.555 158.611 137.322 159.81 136.856C161.01 136.391 162.039 135.621 162.898 134.547L167.007 139.435C166.417 140.276 165.575 141.091 164.483 141.878C163.409 142.666 162.12 143.311 160.616 143.812C159.112 144.295 157.429 144.537 155.567 144.537ZM180.354 121.146V144H171.304V114.942H179.791L180.354 121.146ZM179.28 128.478L177.159 128.531C177.159 126.311 177.427 124.333 177.964 122.596C178.501 120.842 179.262 119.356 180.247 118.138C181.232 116.921 182.404 115.999 183.765 115.372C185.144 114.728 186.674 114.405 188.357 114.405C189.7 114.405 190.927 114.602 192.037 114.996C193.165 115.39 194.131 116.026 194.937 116.903C195.761 117.78 196.387 118.944 196.817 120.394C197.264 121.826 197.488 123.599 197.488 125.711V144H188.384V125.685C188.384 124.521 188.223 123.635 187.901 123.026C187.579 122.399 187.113 121.97 186.504 121.737C185.896 121.504 185.153 121.388 184.275 121.388C183.344 121.388 182.557 121.567 181.912 121.925C181.268 122.283 180.748 122.784 180.354 123.429C179.979 124.055 179.701 124.798 179.522 125.658C179.361 126.517 179.28 127.457 179.28 128.478ZM225.66 140.455L233.448 104.898H238.094L240.618 107.933L232.32 144H227.19L225.66 140.455ZM223.592 104.898L230.171 140.724L228.479 144H222.544L214.246 104.898H223.592ZM244.888 140.536L251.414 104.898H260.733L252.435 144H246.526L244.888 140.536ZM241.451 104.898L249.427 140.67L247.815 144H242.686L234.2 107.879L236.832 104.898H241.451ZM278.189 136.695V124.718C278.189 123.894 278.073 123.187 277.84 122.596C277.607 122.005 277.24 121.549 276.739 121.227C276.237 120.886 275.566 120.716 274.725 120.716C274.044 120.716 273.462 120.833 272.979 121.065C272.496 121.298 272.129 121.647 271.878 122.113C271.627 122.578 271.502 123.169 271.502 123.885H262.452C262.452 122.542 262.747 121.298 263.338 120.152C263.947 118.989 264.806 117.977 265.916 117.118C267.044 116.258 268.387 115.596 269.944 115.13C271.52 114.647 273.274 114.405 275.208 114.405C277.518 114.405 279.576 114.79 281.385 115.56C283.211 116.33 284.652 117.485 285.708 119.024C286.765 120.546 287.293 122.462 287.293 124.771V136.668C287.293 138.566 287.4 140.007 287.615 140.992C287.83 141.959 288.134 142.809 288.528 143.543V144H279.451C279.021 143.105 278.699 142.013 278.484 140.724C278.287 139.417 278.189 138.074 278.189 136.695ZM279.29 126.249L279.344 131.083H275.342C274.501 131.083 273.785 131.199 273.194 131.432C272.621 131.664 272.155 131.987 271.797 132.398C271.457 132.792 271.207 133.24 271.045 133.741C270.902 134.243 270.831 134.771 270.831 135.326C270.831 135.863 270.956 136.346 271.207 136.776C271.475 137.188 271.833 137.51 272.281 137.743C272.728 137.975 273.23 138.092 273.785 138.092C274.787 138.092 275.638 137.904 276.336 137.528C277.052 137.134 277.598 136.66 277.974 136.104C278.35 135.549 278.538 135.03 278.538 134.547L280.525 138.253C280.167 138.969 279.756 139.694 279.29 140.428C278.842 141.162 278.278 141.843 277.598 142.469C276.936 143.078 276.121 143.579 275.154 143.973C274.188 144.349 273.015 144.537 271.636 144.537C269.846 144.537 268.199 144.17 266.695 143.436C265.209 142.702 264.018 141.681 263.123 140.375C262.228 139.05 261.78 137.528 261.78 135.809C261.78 134.305 262.049 132.962 262.586 131.781C263.141 130.599 263.973 129.597 265.083 128.773C266.194 127.949 267.608 127.323 269.327 126.893C271.045 126.463 273.069 126.249 275.396 126.249H279.29ZM307.542 135.836C307.542 135.335 307.372 134.905 307.032 134.547C306.709 134.171 306.137 133.831 305.313 133.526C304.489 133.204 303.335 132.882 301.849 132.56C300.434 132.255 299.1 131.852 297.847 131.351C296.612 130.85 295.529 130.241 294.598 129.525C293.667 128.809 292.933 127.958 292.396 126.974C291.876 125.989 291.617 124.861 291.617 123.59C291.617 122.354 291.876 121.191 292.396 120.099C292.933 118.989 293.711 118.013 294.732 117.171C295.77 116.312 297.033 115.641 298.519 115.157C300.005 114.656 301.696 114.405 303.594 114.405C306.208 114.405 308.464 114.808 310.362 115.614C312.26 116.402 313.719 117.512 314.739 118.944C315.778 120.358 316.297 121.996 316.297 123.858H307.247C307.247 123.124 307.121 122.498 306.871 121.979C306.638 121.459 306.253 121.065 305.716 120.797C305.179 120.51 304.463 120.367 303.567 120.367C302.941 120.367 302.368 120.484 301.849 120.716C301.347 120.949 300.944 121.271 300.64 121.683C300.336 122.095 300.184 122.578 300.184 123.133C300.184 123.527 300.273 123.885 300.452 124.208C300.649 124.512 300.944 124.798 301.338 125.067C301.732 125.318 302.234 125.55 302.842 125.765C303.451 125.962 304.185 126.141 305.044 126.302C306.996 126.66 308.822 127.171 310.523 127.833C312.224 128.495 313.602 129.435 314.659 130.653C315.733 131.87 316.27 133.508 316.27 135.567C316.27 136.856 315.975 138.047 315.384 139.139C314.793 140.213 313.943 141.162 312.833 141.986C311.722 142.792 310.389 143.418 308.831 143.866C307.273 144.313 305.519 144.537 303.567 144.537C300.792 144.537 298.447 144.045 296.531 143.06C294.616 142.057 293.165 140.804 292.181 139.3C291.214 137.778 290.73 136.239 290.73 134.681H299.163C299.199 135.576 299.414 136.31 299.808 136.883C300.219 137.456 300.765 137.877 301.446 138.146C302.126 138.414 302.914 138.548 303.809 138.548C304.633 138.548 305.313 138.432 305.85 138.199C306.405 137.966 306.826 137.653 307.112 137.259C307.399 136.847 307.542 136.373 307.542 135.836ZM334.585 144.537C332.222 144.537 330.11 144.17 328.248 143.436C326.386 142.684 324.81 141.655 323.521 140.348C322.25 139.041 321.274 137.537 320.594 135.836C319.931 134.135 319.6 132.336 319.6 130.438V129.417C319.6 127.287 319.896 125.318 320.486 123.509C321.077 121.683 321.954 120.09 323.118 118.729C324.282 117.368 325.741 116.312 327.496 115.56C329.25 114.79 331.291 114.405 333.619 114.405C335.678 114.405 337.522 114.736 339.151 115.399C340.78 116.061 342.159 117.01 343.287 118.246C344.432 119.481 345.301 120.976 345.892 122.73C346.5 124.485 346.805 126.454 346.805 128.639V132.318H323.064V126.651H337.969V125.953C337.987 124.986 337.817 124.163 337.459 123.482C337.119 122.802 336.618 122.283 335.955 121.925C335.293 121.567 334.487 121.388 333.538 121.388C332.553 121.388 331.739 121.603 331.094 122.032C330.468 122.462 329.975 123.053 329.617 123.805C329.277 124.539 329.035 125.389 328.892 126.356C328.749 127.323 328.677 128.343 328.677 129.417V130.438C328.677 131.512 328.82 132.488 329.107 133.365C329.411 134.243 329.841 134.994 330.396 135.621C330.969 136.23 331.649 136.704 332.437 137.044C333.243 137.385 334.156 137.555 335.176 137.555C336.412 137.555 337.629 137.322 338.829 136.856C340.028 136.391 341.058 135.621 341.917 134.547L346.026 139.435C345.435 140.276 344.594 141.091 343.501 141.878C342.427 142.666 341.138 143.311 339.634 143.812C338.13 144.295 336.447 144.537 334.585 144.537ZM360.044 102.75V144H350.967V102.75H360.044Z" fill="black"/>
<path d="M104.339 59.3726L97.5713 80H92.1196L101.365 55.1172H104.834L104.339 59.3726ZM109.961 80L103.177 59.3726L102.63 55.1172H106.133L115.43 80H109.961ZM109.654 70.7373V74.7534H96.5117V70.7373H109.654ZM122.625 53.75V80H117.686V53.75H122.625ZM131.888 61.5088V80H126.949V61.5088H131.888ZM126.641 56.6895C126.641 55.9717 126.892 55.3792 127.393 54.9121C127.894 54.445 128.567 54.2114 129.41 54.2114C130.241 54.2114 130.908 54.445 131.409 54.9121C131.922 55.3792 132.178 55.9717 132.178 56.6895C132.178 57.4072 131.922 57.9997 131.409 58.4668C130.908 58.9339 130.241 59.1675 129.41 59.1675C128.567 59.1675 127.894 58.9339 127.393 58.4668C126.892 57.9997 126.641 57.4072 126.641 56.6895ZM150.43 55.1172V80H145.32V55.1172H150.43ZM164.922 74.8901C164.922 74.5369 164.82 74.2179 164.615 73.9331C164.41 73.6483 164.028 73.3862 163.47 73.147C162.923 72.8963 162.131 72.6685 161.094 72.4634C160.16 72.2583 159.288 72.002 158.479 71.6943C157.682 71.3753 156.987 70.9937 156.395 70.5493C155.813 70.105 155.358 69.5809 155.027 68.9771C154.697 68.3618 154.532 67.6611 154.532 66.875C154.532 66.1003 154.697 65.3711 155.027 64.6875C155.369 64.0039 155.853 63.4001 156.48 62.876C157.118 62.3405 157.893 61.9246 158.804 61.6284C159.727 61.3208 160.764 61.167 161.915 61.167C163.521 61.167 164.9 61.4233 166.05 61.936C167.212 62.4487 168.101 63.1551 168.716 64.0552C169.343 64.9438 169.656 65.9578 169.656 67.0972H164.734C164.734 66.6187 164.632 66.1914 164.427 65.8154C164.233 65.4281 163.925 65.1261 163.504 64.9097C163.094 64.6818 162.558 64.5679 161.897 64.5679C161.351 64.5679 160.878 64.6647 160.479 64.8584C160.08 65.0407 159.773 65.2913 159.556 65.6104C159.351 65.918 159.249 66.2598 159.249 66.6357C159.249 66.9206 159.306 67.1769 159.419 67.4048C159.545 67.6213 159.744 67.8206 160.018 68.0029C160.291 68.1852 160.644 68.3561 161.077 68.5156C161.521 68.6637 162.068 68.8005 162.718 68.9258C164.051 69.1992 165.241 69.5581 166.29 70.0024C167.338 70.4354 168.169 71.0278 168.785 71.7798C169.4 72.5203 169.708 73.4945 169.708 74.7021C169.708 75.5225 169.525 76.2744 169.161 76.958C168.796 77.6416 168.272 78.2397 167.588 78.7524C166.905 79.2537 166.084 79.6468 165.127 79.9316C164.182 80.2051 163.117 80.3418 161.932 80.3418C160.211 80.3418 158.753 80.0342 157.557 79.4189C156.372 78.8037 155.472 78.0233 154.856 77.0776C154.253 76.1206 153.951 75.1408 153.951 74.1382H158.616C158.639 74.8104 158.81 75.3516 159.129 75.7617C159.459 76.1719 159.875 76.4681 160.376 76.6504C160.889 76.8327 161.442 76.9238 162.034 76.9238C162.672 76.9238 163.202 76.8384 163.624 76.6675C164.045 76.4852 164.364 76.2459 164.581 75.9497C164.808 75.6421 164.922 75.2889 164.922 74.8901ZM177.825 65.3369V80H172.886V61.5088H177.518L177.825 65.3369ZM177.142 70.105H175.774C175.774 68.8175 175.928 67.6326 176.236 66.5503C176.555 65.4565 177.016 64.5109 177.62 63.7134C178.235 62.9045 178.993 62.2778 179.893 61.8335C180.793 61.3892 181.836 61.167 183.021 61.167C183.841 61.167 184.593 61.2923 185.276 61.543C185.96 61.7822 186.547 62.1639 187.037 62.688C187.538 63.2007 187.925 63.8729 188.199 64.7046C188.472 65.5249 188.609 66.5104 188.609 67.6611V80H183.687V68.208C183.687 67.3649 183.573 66.7155 183.345 66.2598C183.117 65.804 182.793 65.485 182.371 65.3027C181.961 65.1204 181.465 65.0293 180.884 65.0293C180.246 65.0293 179.688 65.1603 179.209 65.4224C178.742 65.6844 178.355 66.049 178.047 66.5161C177.74 66.9718 177.512 67.5073 177.364 68.1226C177.216 68.7378 177.142 69.3986 177.142 70.105ZM188.147 69.541L186.387 69.7632C186.387 68.5555 186.535 67.4333 186.832 66.3965C187.139 65.3597 187.589 64.4482 188.182 63.6621C188.785 62.876 189.532 62.2664 190.42 61.8335C191.309 61.3892 192.334 61.167 193.497 61.167C194.385 61.167 195.194 61.298 195.923 61.5601C196.653 61.8107 197.273 62.2152 197.786 62.7734C198.31 63.3203 198.709 64.0381 198.982 64.9268C199.267 65.8154 199.41 66.9035 199.41 68.1909V80H194.471V68.1909C194.471 67.3364 194.357 66.687 194.129 66.2427C193.912 65.7869 193.593 65.4736 193.172 65.3027C192.762 65.1204 192.272 65.0293 191.702 65.0293C191.11 65.0293 190.591 65.1489 190.147 65.3882C189.703 65.616 189.332 65.9351 189.036 66.3452C188.74 66.7554 188.518 67.2339 188.37 67.7808C188.222 68.3162 188.147 68.903 188.147 69.541ZM213.201 75.8301V67.5928C213.201 67.0003 213.104 66.4933 212.911 66.0718C212.717 65.6388 212.415 65.3027 212.005 65.0635C211.606 64.8242 211.088 64.7046 210.45 64.7046C209.903 64.7046 209.43 64.8014 209.031 64.9951C208.632 65.1774 208.325 65.4451 208.108 65.7983C207.892 66.1401 207.784 66.5446 207.784 67.0117H202.862C202.862 66.2256 203.044 65.4793 203.409 64.7729C203.773 64.0666 204.303 63.4456 204.998 62.9102C205.693 62.3633 206.519 61.936 207.476 61.6284C208.444 61.3208 209.527 61.167 210.723 61.167C212.159 61.167 213.435 61.4062 214.551 61.8848C215.668 62.3633 216.545 63.0811 217.183 64.0381C217.833 64.9951 218.157 66.1914 218.157 67.627V75.5396C218.157 76.5535 218.22 77.3853 218.345 78.0347C218.471 78.6727 218.653 79.231 218.892 79.7095V80H213.919C213.68 79.4987 213.497 78.8721 213.372 78.1201C213.258 77.3568 213.201 76.5934 213.201 75.8301ZM213.851 68.7378L213.885 71.5234H211.133C210.484 71.5234 209.92 71.5975 209.441 71.7456C208.963 71.8937 208.57 72.1045 208.262 72.3779C207.955 72.64 207.727 72.9476 207.579 73.3008C207.442 73.654 207.374 74.0413 207.374 74.4629C207.374 74.8844 207.47 75.2661 207.664 75.6079C207.858 75.9383 208.137 76.2004 208.501 76.394C208.866 76.5763 209.293 76.6675 209.783 76.6675C210.524 76.6675 211.167 76.5194 211.714 76.2231C212.261 75.9269 212.683 75.5623 212.979 75.1294C213.287 74.6965 213.446 74.2863 213.458 73.8989L214.756 75.9839C214.574 76.451 214.323 76.9352 214.004 77.4365C213.697 77.9378 213.304 78.4106 212.825 78.855C212.347 79.2879 211.771 79.6468 211.099 79.9316C210.427 80.2051 209.629 80.3418 208.707 80.3418C207.533 80.3418 206.468 80.1082 205.511 79.6411C204.565 79.1626 203.813 78.5075 203.255 77.6758C202.708 76.8327 202.435 75.8757 202.435 74.8047C202.435 73.8363 202.617 72.9761 202.981 72.2241C203.346 71.4722 203.882 70.8398 204.588 70.3271C205.306 69.8031 206.2 69.41 207.271 69.1479C208.342 68.8745 209.584 68.7378 210.997 68.7378H213.851ZM227.146 61.5088V80H222.208V61.5088H227.146ZM221.9 56.6895C221.9 55.9717 222.151 55.3792 222.652 54.9121C223.153 54.445 223.825 54.2114 224.668 54.2114C225.5 54.2114 226.167 54.445 226.668 54.9121C227.181 55.3792 227.437 55.9717 227.437 56.6895C227.437 57.4072 227.181 57.9997 226.668 58.4668C226.167 58.9339 225.5 59.1675 224.668 59.1675C223.825 59.1675 223.153 58.9339 222.652 58.4668C222.151 57.9997 221.9 57.4072 221.9 56.6895ZM236.409 53.75V80H231.47V53.75H236.409Z" fill="#888888"/>
<rect x="92" y="181" width="1179" height="80" rx="13.3333" fill="#CCCCCC"/>
<rect x="107" y="196.333" width="208" height="49.3333" rx="4.66667" fill="#888888" stroke="#888888" stroke-width="4"/>
<path d="M150.833 213.167H156.802C157.969 213.167 158.983 213.34 159.844 213.687C160.705 214.035 161.368 214.549 161.833 215.229C162.306 215.91 162.542 216.75 162.542 217.75C162.542 218.618 162.406 219.344 162.135 219.927C161.865 220.51 161.486 220.993 161 221.375C160.521 221.75 159.962 222.059 159.323 222.302L158.125 222.979H153.115L153.094 220.156H156.802C157.267 220.156 157.653 220.073 157.958 219.906C158.264 219.74 158.493 219.503 158.646 219.198C158.806 218.885 158.885 218.514 158.885 218.083C158.885 217.646 158.806 217.271 158.646 216.958C158.486 216.646 158.25 216.406 157.937 216.24C157.632 216.073 157.253 215.99 156.802 215.99H154.49V228.333H150.833V213.167ZM159.135 228.333L155.781 221.625L159.656 221.604L163.052 228.177V228.333H159.135ZM170.042 228.542C169.125 228.542 168.306 228.399 167.583 228.115C166.861 227.823 166.25 227.424 165.75 226.917C165.257 226.41 164.878 225.826 164.615 225.167C164.358 224.507 164.229 223.809 164.229 223.073V222.677C164.229 221.851 164.344 221.087 164.573 220.385C164.802 219.677 165.142 219.059 165.594 218.531C166.045 218.003 166.611 217.594 167.292 217.302C167.972 217.003 168.764 216.854 169.667 216.854C170.465 216.854 171.181 216.983 171.813 217.24C172.444 217.497 172.979 217.865 173.417 218.344C173.861 218.823 174.198 219.403 174.427 220.083C174.663 220.764 174.781 221.528 174.781 222.375V223.802H165.573V221.604H171.354V221.333C171.361 220.958 171.295 220.639 171.156 220.375C171.024 220.111 170.83 219.91 170.573 219.771C170.316 219.632 170.003 219.562 169.635 219.562C169.253 219.562 168.938 219.646 168.688 219.812C168.444 219.979 168.253 220.208 168.115 220.5C167.983 220.785 167.889 221.115 167.833 221.49C167.778 221.865 167.75 222.26 167.75 222.677V223.073C167.75 223.49 167.806 223.868 167.917 224.208C168.035 224.549 168.201 224.84 168.417 225.083C168.639 225.319 168.903 225.503 169.208 225.635C169.521 225.767 169.875 225.833 170.271 225.833C170.75 225.833 171.222 225.743 171.688 225.562C172.153 225.382 172.552 225.083 172.885 224.667L174.479 226.562C174.25 226.889 173.924 227.205 173.5 227.51C173.083 227.816 172.583 228.066 172 228.26C171.417 228.448 170.764 228.542 170.042 228.542ZM182.063 225.5V220.854C182.063 220.535 182.017 220.26 181.927 220.031C181.837 219.802 181.694 219.625 181.5 219.5C181.306 219.368 181.045 219.302 180.719 219.302C180.455 219.302 180.229 219.347 180.042 219.437C179.854 219.528 179.712 219.663 179.615 219.844C179.517 220.024 179.469 220.253 179.469 220.531H175.958C175.958 220.01 176.073 219.528 176.302 219.083C176.538 218.632 176.872 218.24 177.302 217.906C177.74 217.573 178.26 217.316 178.865 217.135C179.476 216.948 180.156 216.854 180.906 216.854C181.802 216.854 182.601 217.003 183.302 217.302C184.01 217.601 184.569 218.049 184.979 218.646C185.389 219.236 185.594 219.979 185.594 220.875V225.49C185.594 226.226 185.635 226.785 185.719 227.167C185.802 227.542 185.92 227.872 186.073 228.156V228.333H182.552C182.385 227.986 182.26 227.562 182.177 227.062C182.101 226.556 182.063 226.035 182.063 225.5ZM182.49 221.448L182.51 223.323H180.958C180.632 223.323 180.354 223.368 180.125 223.458C179.903 223.549 179.722 223.674 179.583 223.833C179.451 223.986 179.354 224.16 179.292 224.354C179.236 224.549 179.208 224.753 179.208 224.969C179.208 225.177 179.257 225.365 179.354 225.531C179.458 225.691 179.597 225.816 179.771 225.906C179.944 225.997 180.139 226.042 180.354 226.042C180.743 226.042 181.073 225.969 181.344 225.823C181.622 225.67 181.833 225.486 181.979 225.271C182.125 225.056 182.198 224.854 182.198 224.667L182.969 226.104C182.83 226.382 182.67 226.663 182.49 226.948C182.316 227.233 182.097 227.497 181.833 227.74C181.576 227.976 181.26 228.17 180.885 228.323C180.51 228.469 180.056 228.542 179.521 228.542C178.826 228.542 178.188 228.399 177.604 228.115C177.028 227.83 176.566 227.434 176.219 226.927C175.872 226.413 175.698 225.823 175.698 225.156C175.698 224.573 175.802 224.052 176.01 223.594C176.226 223.135 176.549 222.747 176.979 222.427C177.41 222.108 177.958 221.865 178.625 221.698C179.292 221.531 180.076 221.448 180.979 221.448H182.49ZM192.302 225.833C192.628 225.833 192.906 225.774 193.135 225.656C193.372 225.531 193.549 225.358 193.667 225.135C193.792 224.906 193.851 224.632 193.844 224.312H197.146C197.153 225.16 196.944 225.903 196.521 226.542C196.104 227.174 195.535 227.667 194.812 228.021C194.097 228.368 193.288 228.542 192.385 228.542C191.503 228.542 190.733 228.399 190.073 228.115C189.413 227.823 188.861 227.42 188.417 226.906C187.979 226.385 187.649 225.778 187.427 225.083C187.212 224.389 187.104 223.635 187.104 222.823V222.583C187.104 221.771 187.212 221.017 187.427 220.323C187.649 219.622 187.979 219.014 188.417 218.5C188.861 217.979 189.41 217.576 190.062 217.292C190.722 217 191.49 216.854 192.365 216.854C193.302 216.854 194.128 217.031 194.844 217.385C195.566 217.74 196.132 218.253 196.542 218.927C196.951 219.601 197.153 220.417 197.146 221.375H193.844C193.851 221.035 193.799 220.729 193.687 220.458C193.576 220.187 193.403 219.972 193.167 219.812C192.937 219.646 192.642 219.562 192.281 219.562C191.92 219.562 191.628 219.642 191.406 219.802C191.184 219.962 191.014 220.184 190.896 220.469C190.785 220.747 190.708 221.066 190.667 221.427C190.632 221.788 190.615 222.174 190.615 222.583V222.823C190.615 223.24 190.632 223.632 190.667 224C190.708 224.361 190.788 224.681 190.906 224.958C191.024 225.229 191.194 225.444 191.417 225.604C191.639 225.757 191.934 225.833 192.302 225.833ZM204.583 217.062V219.5H197.792V217.062H204.583ZM199.219 214.26H202.729V224.656C202.729 224.955 202.764 225.187 202.833 225.354C202.903 225.514 203.021 225.628 203.188 225.698C203.361 225.76 203.59 225.792 203.875 225.792C204.076 225.792 204.243 225.788 204.375 225.781C204.507 225.767 204.632 225.75 204.75 225.729V228.24C204.451 228.337 204.139 228.41 203.813 228.458C203.486 228.514 203.139 228.542 202.771 228.542C202.021 228.542 201.378 228.424 200.844 228.187C200.316 227.951 199.913 227.58 199.635 227.073C199.358 226.566 199.219 225.906 199.219 225.094V214.26ZM224.125 213.167V228.333H220.479L215.115 218.896V228.333H211.458V213.167H215.115L220.479 222.604V213.167H224.125ZM232.125 225.5V220.854C232.125 220.535 232.08 220.26 231.99 220.031C231.899 219.802 231.757 219.625 231.563 219.5C231.368 219.368 231.108 219.302 230.781 219.302C230.517 219.302 230.292 219.347 230.104 219.437C229.917 219.528 229.774 219.663 229.677 219.844C229.58 220.024 229.531 220.253 229.531 220.531H226.021C226.021 220.01 226.135 219.528 226.365 219.083C226.601 218.632 226.934 218.24 227.365 217.906C227.802 217.573 228.323 217.316 228.927 217.135C229.538 216.948 230.219 216.854 230.969 216.854C231.865 216.854 232.663 217.003 233.365 217.302C234.073 217.601 234.632 218.049 235.042 218.646C235.451 219.236 235.656 219.979 235.656 220.875V225.49C235.656 226.226 235.698 226.785 235.781 227.167C235.865 227.542 235.983 227.872 236.135 228.156V228.333H232.615C232.448 227.986 232.323 227.562 232.24 227.062C232.163 226.556 232.125 226.035 232.125 225.5ZM232.552 221.448L232.573 223.323H231.021C230.694 223.323 230.417 223.368 230.188 223.458C229.965 223.549 229.785 223.674 229.646 223.833C229.514 223.986 229.417 224.16 229.354 224.354C229.299 224.549 229.271 224.753 229.271 224.969C229.271 225.177 229.319 225.365 229.417 225.531C229.521 225.691 229.66 225.816 229.833 225.906C230.007 225.997 230.201 226.042 230.417 226.042C230.806 226.042 231.135 225.969 231.406 225.823C231.684 225.67 231.896 225.486 232.042 225.271C232.188 225.056 232.26 224.854 232.26 224.667L233.031 226.104C232.892 226.382 232.733 226.663 232.552 226.948C232.378 227.233 232.16 227.497 231.896 227.74C231.639 227.976 231.323 228.17 230.948 228.323C230.573 228.469 230.118 228.542 229.583 228.542C228.889 228.542 228.25 228.399 227.667 228.115C227.09 227.83 226.628 227.434 226.281 226.927C225.934 226.413 225.76 225.823 225.76 225.156C225.76 224.573 225.865 224.052 226.073 223.594C226.288 223.135 226.611 222.747 227.042 222.427C227.472 222.108 228.021 221.865 228.688 221.698C229.354 221.531 230.139 221.448 231.042 221.448H232.552ZM243.542 217.062V219.5H236.75V217.062H243.542ZM238.177 214.26H241.687V224.656C241.687 224.955 241.722 225.187 241.792 225.354C241.861 225.514 241.979 225.628 242.146 225.698C242.319 225.76 242.549 225.792 242.833 225.792C243.035 225.792 243.201 225.788 243.333 225.781C243.465 225.767 243.59 225.75 243.708 225.729V228.24C243.41 228.337 243.097 228.41 242.771 228.458C242.444 228.514 242.097 228.542 241.729 228.542C240.979 228.542 240.337 228.424 239.802 228.187C239.274 227.951 238.872 227.58 238.594 227.073C238.316 226.566 238.177 225.906 238.177 225.094V214.26ZM248.646 217.062V228.333H245.125V217.062H248.646ZM244.917 214.156C244.917 213.656 245.097 213.247 245.458 212.927C245.819 212.608 246.288 212.448 246.865 212.448C247.441 212.448 247.91 212.608 248.271 212.927C248.632 213.247 248.813 213.656 248.813 214.156C248.813 214.656 248.632 215.066 248.271 215.385C247.91 215.705 247.441 215.865 246.865 215.865C246.288 215.865 245.819 215.705 245.458 215.385C245.097 215.066 244.917 214.656 244.917 214.156ZM254.875 225.927L257.094 217.062H260.792L257.104 228.333H254.917L254.875 225.927ZM253.563 217.062L255.75 225.927L255.729 228.333H253.531L249.854 217.062H253.563ZM267.146 228.542C266.229 228.542 265.41 228.399 264.688 228.115C263.965 227.823 263.354 227.424 262.854 226.917C262.361 226.41 261.983 225.826 261.719 225.167C261.462 224.507 261.333 223.809 261.333 223.073V222.677C261.333 221.851 261.448 221.087 261.677 220.385C261.906 219.677 262.247 219.059 262.698 218.531C263.149 218.003 263.715 217.594 264.396 217.302C265.076 217.003 265.868 216.854 266.771 216.854C267.569 216.854 268.285 216.983 268.917 217.24C269.549 217.497 270.083 217.865 270.521 218.344C270.965 218.823 271.302 219.403 271.531 220.083C271.767 220.764 271.885 221.528 271.885 222.375V223.802H262.677V221.604H268.458V221.333C268.465 220.958 268.399 220.639 268.26 220.375C268.128 220.111 267.934 219.91 267.677 219.771C267.42 219.632 267.108 219.562 266.74 219.562C266.358 219.562 266.042 219.646 265.792 219.812C265.549 219.979 265.358 220.208 265.219 220.5C265.087 220.785 264.993 221.115 264.938 221.49C264.882 221.865 264.854 222.26 264.854 222.677V223.073C264.854 223.49 264.91 223.868 265.021 224.208C265.139 224.549 265.306 224.84 265.521 225.083C265.743 225.319 266.007 225.503 266.313 225.635C266.625 225.767 266.979 225.833 267.375 225.833C267.854 225.833 268.326 225.743 268.792 225.562C269.257 225.382 269.656 225.083 269.99 224.667L271.583 226.562C271.354 226.889 271.028 227.205 270.604 227.51C270.188 227.816 269.688 228.066 269.104 228.26C268.521 228.448 267.868 228.542 267.146 228.542Z" fill="white"/>
<rect x="339" y="196.333" width="208" height="49.3333" rx="4.66667" fill="#888888" stroke="#888888" stroke-width="4"/>
<path d="M419.073 225.521V228.333H411.406V225.521H419.073ZM412.708 213.167V228.333H409.052V213.167H412.708ZM426.302 225.5V220.854C426.302 220.535 426.257 220.26 426.167 220.031C426.076 219.802 425.934 219.625 425.74 219.5C425.545 219.368 425.285 219.302 424.958 219.302C424.694 219.302 424.469 219.347 424.281 219.437C424.094 219.528 423.951 219.663 423.854 219.844C423.757 220.024 423.708 220.253 423.708 220.531H420.198C420.198 220.01 420.312 219.528 420.542 219.083C420.778 218.632 421.111 218.24 421.542 217.906C421.979 217.573 422.5 217.316 423.104 217.135C423.715 216.948 424.396 216.854 425.146 216.854C426.042 216.854 426.84 217.003 427.542 217.302C428.25 217.601 428.809 218.049 429.219 218.646C429.628 219.236 429.833 219.979 429.833 220.875V225.49C429.833 226.226 429.875 226.785 429.958 227.167C430.042 227.542 430.16 227.872 430.312 228.156V228.333H426.792C426.625 227.986 426.5 227.562 426.417 227.062C426.34 226.556 426.302 226.035 426.302 225.5ZM426.729 221.448L426.75 223.323H425.198C424.872 223.323 424.594 223.368 424.365 223.458C424.142 223.549 423.962 223.674 423.823 223.833C423.691 223.986 423.594 224.16 423.531 224.354C423.476 224.549 423.448 224.753 423.448 224.969C423.448 225.177 423.497 225.365 423.594 225.531C423.698 225.691 423.837 225.816 424.01 225.906C424.184 225.997 424.378 226.042 424.594 226.042C424.983 226.042 425.312 225.969 425.583 225.823C425.861 225.67 426.073 225.486 426.219 225.271C426.365 225.056 426.437 224.854 426.437 224.667L427.208 226.104C427.069 226.382 426.91 226.663 426.729 226.948C426.556 227.233 426.337 227.497 426.073 227.74C425.816 227.976 425.5 228.17 425.125 228.323C424.75 228.469 424.295 228.542 423.76 228.542C423.066 228.542 422.427 228.399 421.844 228.115C421.267 227.83 420.806 227.434 420.458 226.927C420.111 226.413 419.937 225.823 419.937 225.156C419.937 224.573 420.042 224.052 420.25 223.594C420.465 223.135 420.788 222.747 421.219 222.427C421.649 222.108 422.198 221.865 422.865 221.698C423.531 221.531 424.316 221.448 425.219 221.448H426.729ZM435.323 219.854V228.333H431.812V217.062H435.094L435.323 219.854ZM438.656 216.979L438.594 220.24C438.455 220.226 438.267 220.208 438.031 220.187C437.795 220.167 437.597 220.156 437.437 220.156C437.028 220.156 436.674 220.205 436.375 220.302C436.083 220.392 435.84 220.531 435.646 220.719C435.458 220.899 435.319 221.128 435.229 221.406C435.146 221.684 435.108 222.007 435.115 222.375L434.479 221.958C434.479 221.201 434.552 220.514 434.698 219.896C434.851 219.271 435.066 218.733 435.344 218.281C435.622 217.823 435.958 217.472 436.354 217.229C436.75 216.979 437.194 216.854 437.687 216.854C437.861 216.854 438.031 216.865 438.198 216.885C438.372 216.906 438.524 216.937 438.656 216.979ZM445.406 225.5V220.854C445.406 220.535 445.361 220.26 445.271 220.031C445.181 219.802 445.038 219.625 444.844 219.5C444.649 219.368 444.389 219.302 444.063 219.302C443.799 219.302 443.573 219.347 443.385 219.437C443.198 219.528 443.056 219.663 442.958 219.844C442.861 220.024 442.813 220.253 442.813 220.531H439.302C439.302 220.01 439.417 219.528 439.646 219.083C439.882 218.632 440.215 218.24 440.646 217.906C441.083 217.573 441.604 217.316 442.208 217.135C442.819 216.948 443.5 216.854 444.25 216.854C445.146 216.854 445.944 217.003 446.646 217.302C447.354 217.601 447.913 218.049 448.323 218.646C448.733 219.236 448.938 219.979 448.938 220.875V225.49C448.938 226.226 448.979 226.785 449.063 227.167C449.146 227.542 449.264 227.872 449.417 228.156V228.333H445.896C445.729 227.986 445.604 227.562 445.521 227.062C445.444 226.556 445.406 226.035 445.406 225.5ZM445.833 221.448L445.854 223.323H444.302C443.976 223.323 443.698 223.368 443.469 223.458C443.247 223.549 443.066 223.674 442.927 223.833C442.795 223.986 442.698 224.16 442.635 224.354C442.58 224.549 442.552 224.753 442.552 224.969C442.552 225.177 442.601 225.365 442.698 225.531C442.802 225.691 442.941 225.816 443.115 225.906C443.288 225.997 443.483 226.042 443.698 226.042C444.087 226.042 444.417 225.969 444.688 225.823C444.965 225.67 445.177 225.486 445.323 225.271C445.469 225.056 445.542 224.854 445.542 224.667L446.313 226.104C446.174 226.382 446.014 226.663 445.833 226.948C445.66 227.233 445.441 227.497 445.177 227.74C444.92 227.976 444.604 228.17 444.229 228.323C443.854 228.469 443.399 228.542 442.865 228.542C442.17 228.542 441.531 228.399 440.948 228.115C440.372 227.83 439.91 227.434 439.563 226.927C439.215 226.413 439.042 225.823 439.042 225.156C439.042 224.573 439.146 224.052 439.354 223.594C439.569 223.135 439.892 222.747 440.323 222.427C440.753 222.108 441.302 221.865 441.969 221.698C442.635 221.531 443.42 221.448 444.323 221.448H445.833ZM454.781 225.927L457 217.062H460.698L457.01 228.333H454.823L454.781 225.927ZM453.469 217.062L455.656 225.927L455.635 228.333H453.437L449.76 217.062H453.469ZM467.052 228.542C466.135 228.542 465.316 228.399 464.594 228.115C463.872 227.823 463.26 227.424 462.76 226.917C462.267 226.41 461.889 225.826 461.625 225.167C461.368 224.507 461.24 223.809 461.24 223.073V222.677C461.24 221.851 461.354 221.087 461.583 220.385C461.812 219.677 462.153 219.059 462.604 218.531C463.056 218.003 463.622 217.594 464.302 217.302C464.983 217.003 465.774 216.854 466.677 216.854C467.476 216.854 468.191 216.983 468.823 217.24C469.455 217.497 469.99 217.865 470.427 218.344C470.872 218.823 471.208 219.403 471.437 220.083C471.674 220.764 471.792 221.528 471.792 222.375V223.802H462.583V221.604H468.365V221.333C468.372 220.958 468.306 220.639 468.167 220.375C468.035 220.111 467.84 219.91 467.583 219.771C467.326 219.632 467.014 219.562 466.646 219.562C466.264 219.562 465.948 219.646 465.698 219.812C465.455 219.979 465.264 220.208 465.125 220.5C464.993 220.785 464.899 221.115 464.844 221.49C464.788 221.865 464.76 222.26 464.76 222.677V223.073C464.76 223.49 464.816 223.868 464.927 224.208C465.045 224.549 465.212 224.84 465.427 225.083C465.649 225.319 465.913 225.503 466.219 225.635C466.531 225.767 466.885 225.833 467.281 225.833C467.76 225.833 468.233 225.743 468.698 225.562C469.163 225.382 469.562 225.083 469.896 224.667L471.49 226.562C471.26 226.889 470.934 227.205 470.51 227.51C470.094 227.816 469.594 228.066 469.01 228.26C468.427 228.448 467.774 228.542 467.052 228.542ZM476.927 212.333V228.333H473.406V212.333H476.927Z" fill="white"/>
<rect x="571" y="196.333" width="208" height="49.3333" rx="4.66667" fill="#888888" stroke="#888888" stroke-width="4"/>
<path d="M643.26 213.167H646.24L649.625 223.719L653.01 213.167H655.99L650.833 228.333H648.417L643.26 213.167ZM641.448 213.167H644.531L645.104 224.792V228.333H641.448V213.167ZM654.719 213.167H657.812V228.333H654.146V224.792L654.719 213.167ZM663.448 227.01L666.365 217.062H670.135L665.604 230.01C665.507 230.295 665.378 230.601 665.219 230.927C665.059 231.26 664.84 231.576 664.563 231.875C664.285 232.174 663.927 232.417 663.49 232.604C663.059 232.792 662.524 232.885 661.885 232.885C661.545 232.885 661.295 232.868 661.135 232.833C660.983 232.806 660.747 232.753 660.427 232.677V230.167C660.517 230.167 660.594 230.167 660.656 230.167C660.726 230.167 660.802 230.167 660.885 230.167C661.26 230.167 661.559 230.128 661.781 230.052C662.01 229.976 662.184 229.865 662.302 229.719C662.427 229.573 662.524 229.396 662.594 229.187L663.448 227.01ZM662.708 217.062L664.927 224.948L665.313 228.667H662.958L658.948 217.062H662.708ZM679.031 224.302C679.031 224.066 678.997 223.854 678.927 223.667C678.858 223.472 678.729 223.292 678.542 223.125C678.354 222.958 678.083 222.792 677.729 222.625C677.382 222.451 676.924 222.271 676.354 222.083C675.688 221.861 675.045 221.611 674.427 221.333C673.809 221.049 673.257 220.719 672.771 220.344C672.285 219.962 671.899 219.517 671.615 219.01C671.33 218.497 671.188 217.899 671.188 217.219C671.188 216.566 671.333 215.979 671.625 215.458C671.917 214.931 672.323 214.483 672.844 214.115C673.372 213.74 673.99 213.455 674.698 213.26C675.406 213.059 676.181 212.958 677.021 212.958C678.132 212.958 679.111 213.153 679.958 213.542C680.813 213.924 681.479 214.469 681.958 215.177C682.444 215.878 682.688 216.708 682.688 217.667H679.052C679.052 217.285 678.972 216.948 678.813 216.656C678.66 216.365 678.427 216.135 678.115 215.969C677.802 215.802 677.41 215.719 676.938 215.719C676.479 215.719 676.094 215.788 675.781 215.927C675.469 216.066 675.233 216.253 675.073 216.49C674.913 216.719 674.833 216.972 674.833 217.25C674.833 217.479 674.896 217.687 675.021 217.875C675.153 218.056 675.337 218.226 675.573 218.385C675.816 218.545 676.108 218.698 676.448 218.844C676.795 218.99 677.184 219.132 677.615 219.271C678.42 219.528 679.135 219.816 679.76 220.135C680.392 220.448 680.924 220.806 681.354 221.208C681.792 221.604 682.122 222.056 682.344 222.562C682.573 223.069 682.688 223.642 682.688 224.281C682.688 224.962 682.556 225.566 682.292 226.094C682.028 226.622 681.649 227.069 681.156 227.437C680.663 227.799 680.073 228.073 679.385 228.26C678.698 228.448 677.931 228.542 677.083 228.542C676.306 228.542 675.538 228.444 674.781 228.25C674.031 228.049 673.351 227.743 672.74 227.333C672.128 226.917 671.639 226.385 671.271 225.74C670.91 225.087 670.729 224.312 670.729 223.417H674.396C674.396 223.861 674.455 224.236 674.573 224.542C674.691 224.847 674.865 225.094 675.094 225.281C675.323 225.462 675.604 225.594 675.938 225.677C676.271 225.753 676.653 225.792 677.083 225.792C677.549 225.792 677.924 225.726 678.208 225.594C678.493 225.455 678.701 225.274 678.833 225.052C678.965 224.823 679.031 224.573 679.031 224.302ZM693.031 225.833L697.26 229.187L694.99 231.104L690.833 227.75L693.031 225.833ZM697.437 220.448V221.062C697.437 222.222 697.274 223.264 696.948 224.187C696.628 225.104 696.17 225.889 695.573 226.542C694.983 227.187 694.285 227.684 693.479 228.031C692.674 228.372 691.785 228.542 690.812 228.542C689.833 228.542 688.937 228.372 688.125 228.031C687.319 227.684 686.618 227.187 686.021 226.542C685.431 225.889 684.972 225.104 684.646 224.187C684.326 223.264 684.167 222.222 684.167 221.062V220.448C684.167 219.288 684.326 218.247 684.646 217.323C684.972 216.399 685.427 215.615 686.01 214.969C686.601 214.316 687.299 213.819 688.104 213.479C688.917 213.132 689.812 212.958 690.792 212.958C691.764 212.958 692.653 213.132 693.458 213.479C694.271 213.819 694.972 214.316 695.562 214.969C696.16 215.615 696.622 216.399 696.948 217.323C697.274 218.247 697.437 219.288 697.437 220.448ZM693.719 221.062V220.427C693.719 219.677 693.653 219.017 693.521 218.448C693.396 217.872 693.208 217.389 692.958 217C692.708 216.611 692.399 216.319 692.031 216.125C691.67 215.924 691.257 215.823 690.792 215.823C690.306 215.823 689.882 215.924 689.521 216.125C689.16 216.319 688.858 216.611 688.615 217C688.372 217.389 688.187 217.872 688.062 218.448C687.944 219.017 687.885 219.677 687.885 220.427V221.062C687.885 221.806 687.944 222.465 688.062 223.042C688.187 223.611 688.372 224.094 688.615 224.49C688.865 224.885 689.17 225.184 689.531 225.385C689.899 225.587 690.326 225.687 690.812 225.687C691.278 225.687 691.691 225.587 692.052 225.385C692.413 225.184 692.715 224.885 692.958 224.49C693.208 224.094 693.396 223.611 693.521 223.042C693.653 222.465 693.719 221.806 693.719 221.062ZM709.323 225.521V228.333H701.656V225.521H709.323ZM702.958 213.167V228.333H699.302V213.167H702.958Z" fill="white"/>
<rect x="803" y="196.333" width="208" height="49.3333" rx="4.66667" fill="#888888" stroke="#888888" stroke-width="4"/>
<path d="M882.844 213.167V228.333H879.198L873.833 218.896V228.333H870.177V213.167H873.833L879.198 222.604V213.167H882.844ZM884.552 222.812V222.594C884.552 221.767 884.67 221.007 884.906 220.312C885.142 219.611 885.49 219.003 885.948 218.49C886.406 217.976 886.972 217.576 887.646 217.292C888.319 217 889.097 216.854 889.979 216.854C890.868 216.854 891.649 217 892.323 217.292C893.003 217.576 893.573 217.976 894.031 218.49C894.49 219.003 894.837 219.611 895.073 220.312C895.309 221.007 895.427 221.767 895.427 222.594V222.812C895.427 223.632 895.309 224.392 895.073 225.094C894.837 225.788 894.49 226.396 894.031 226.917C893.573 227.431 893.007 227.83 892.333 228.115C891.66 228.399 890.882 228.542 890 228.542C889.118 228.542 888.337 228.399 887.656 228.115C886.976 227.83 886.406 227.431 885.948 226.917C885.49 226.396 885.142 225.788 884.906 225.094C884.67 224.392 884.552 223.632 884.552 222.812ZM888.062 222.594V222.812C888.062 223.236 888.094 223.632 888.156 224C888.219 224.368 888.323 224.691 888.469 224.969C888.615 225.24 888.812 225.451 889.062 225.604C889.312 225.757 889.625 225.833 890 225.833C890.368 225.833 890.674 225.757 890.917 225.604C891.167 225.451 891.365 225.24 891.51 224.969C891.656 224.691 891.76 224.368 891.823 224C891.885 223.632 891.917 223.236 891.917 222.812V222.594C891.917 222.184 891.885 221.799 891.823 221.437C891.76 221.069 891.656 220.747 891.51 220.469C891.365 220.184 891.167 219.962 890.917 219.802C890.667 219.642 890.354 219.562 889.979 219.562C889.611 219.562 889.302 219.642 889.052 219.802C888.809 219.962 888.615 220.184 888.469 220.469C888.323 220.747 888.219 221.069 888.156 221.437C888.094 221.799 888.062 222.184 888.062 222.594ZM903.469 225.75V212.333H907V228.333H903.833L903.469 225.75ZM896.552 222.833V222.615C896.552 221.76 896.646 220.983 896.833 220.281C897.021 219.573 897.299 218.965 897.667 218.458C898.035 217.944 898.493 217.549 899.042 217.271C899.59 216.993 900.222 216.854 900.938 216.854C901.576 216.854 902.135 217.003 902.615 217.302C903.094 217.594 903.503 218.003 903.844 218.531C904.184 219.059 904.462 219.677 904.677 220.385C904.892 221.087 905.056 221.844 905.167 222.656V222.917C905.056 223.681 904.892 224.403 904.677 225.083C904.462 225.757 904.184 226.354 903.844 226.875C903.503 227.396 903.09 227.806 902.604 228.104C902.125 228.396 901.563 228.542 900.917 228.542C900.201 228.542 899.569 228.399 899.021 228.115C898.479 227.83 898.024 227.431 897.656 226.917C897.295 226.403 897.021 225.799 896.833 225.104C896.646 224.41 896.552 223.653 896.552 222.833ZM900.063 222.615V222.833C900.063 223.257 900.09 223.649 900.146 224.01C900.201 224.372 900.295 224.691 900.427 224.969C900.566 225.24 900.747 225.451 900.969 225.604C901.198 225.757 901.479 225.833 901.813 225.833C902.264 225.833 902.635 225.726 902.927 225.51C903.226 225.295 903.444 224.99 903.583 224.594C903.729 224.198 903.792 223.733 903.771 223.198V222.375C903.785 221.917 903.753 221.514 903.677 221.167C903.601 220.812 903.479 220.517 903.313 220.281C903.153 220.045 902.948 219.868 902.698 219.75C902.455 219.625 902.167 219.562 901.833 219.562C901.507 219.562 901.229 219.639 901 219.792C900.778 219.944 900.597 220.16 900.458 220.437C900.319 220.708 900.219 221.031 900.156 221.406C900.094 221.774 900.063 222.177 900.063 222.615ZM914.448 228.542C913.531 228.542 912.712 228.399 911.99 228.115C911.267 227.823 910.656 227.424 910.156 226.917C909.663 226.41 909.285 225.826 909.021 225.167C908.764 224.507 908.635 223.809 908.635 223.073V222.677C908.635 221.851 908.75 221.087 908.979 220.385C909.208 219.677 909.549 219.059 910 218.531C910.451 218.003 911.017 217.594 911.698 217.302C912.378 217.003 913.17 216.854 914.073 216.854C914.872 216.854 915.587 216.983 916.219 217.24C916.851 217.497 917.385 217.865 917.823 218.344C918.267 218.823 918.604 219.403 918.833 220.083C919.069 220.764 919.188 221.528 919.188 222.375V223.802H909.979V221.604H915.76V221.333C915.767 220.958 915.701 220.639 915.563 220.375C915.431 220.111 915.236 219.91 914.979 219.771C914.722 219.632 914.41 219.562 914.042 219.562C913.66 219.562 913.344 219.646 913.094 219.812C912.851 219.979 912.66 220.208 912.521 220.5C912.389 220.785 912.295 221.115 912.24 221.49C912.184 221.865 912.156 222.26 912.156 222.677V223.073C912.156 223.49 912.212 223.868 912.323 224.208C912.441 224.549 912.608 224.84 912.823 225.083C913.045 225.319 913.309 225.503 913.615 225.635C913.927 225.767 914.281 225.833 914.677 225.833C915.156 225.833 915.628 225.743 916.094 225.562C916.559 225.382 916.958 225.083 917.292 224.667L918.885 226.562C918.656 226.889 918.33 227.205 917.906 227.51C917.49 227.816 916.99 228.066 916.406 228.26C915.823 228.448 915.17 228.542 914.448 228.542ZM926.813 223.573V213.167H930.458V223.573C930.458 224.587 930.226 225.465 929.76 226.208C929.302 226.951 928.677 227.528 927.885 227.937C927.101 228.34 926.219 228.542 925.24 228.542C924.226 228.542 923.323 228.372 922.531 228.031C921.747 227.691 921.128 227.167 920.677 226.458C920.233 225.75 920.01 224.847 920.01 223.75H923.677C923.677 224.264 923.736 224.667 923.854 224.958C923.972 225.243 924.146 225.444 924.375 225.562C924.611 225.674 924.899 225.729 925.24 225.729C925.573 225.729 925.854 225.646 926.083 225.479C926.319 225.306 926.5 225.059 926.625 224.74C926.75 224.413 926.813 224.024 926.813 223.573ZM940.594 224.302C940.594 224.066 940.559 223.854 940.49 223.667C940.42 223.472 940.292 223.292 940.104 223.125C939.917 222.958 939.646 222.792 939.292 222.625C938.944 222.451 938.486 222.271 937.917 222.083C937.25 221.861 936.608 221.611 935.99 221.333C935.372 221.049 934.819 220.719 934.333 220.344C933.847 219.962 933.462 219.517 933.177 219.01C932.892 218.497 932.75 217.899 932.75 217.219C932.75 216.566 932.896 215.979 933.188 215.458C933.479 214.931 933.885 214.483 934.406 214.115C934.934 213.74 935.552 213.455 936.26 213.26C936.969 213.059 937.743 212.958 938.583 212.958C939.694 212.958 940.674 213.153 941.521 213.542C942.375 213.924 943.042 214.469 943.521 215.177C944.007 215.878 944.25 216.708 944.25 217.667H940.615C940.615 217.285 940.535 216.948 940.375 216.656C940.222 216.365 939.99 216.135 939.677 215.969C939.365 215.802 938.972 215.719 938.5 215.719C938.042 215.719 937.656 215.788 937.344 215.927C937.031 216.066 936.795 216.253 936.635 216.49C936.476 216.719 936.396 216.972 936.396 217.25C936.396 217.479 936.458 217.687 936.583 217.875C936.715 218.056 936.899 218.226 937.135 218.385C937.378 218.545 937.67 218.698 938.01 218.844C938.358 218.99 938.747 219.132 939.177 219.271C939.983 219.528 940.698 219.816 941.323 220.135C941.955 220.448 942.486 220.806 942.917 221.208C943.354 221.604 943.684 222.056 943.906 222.562C944.135 223.069 944.25 223.642 944.25 224.281C944.25 224.962 944.118 225.566 943.854 226.094C943.59 226.622 943.212 227.069 942.719 227.437C942.226 227.799 941.635 228.073 940.948 228.26C940.26 228.448 939.493 228.542 938.646 228.542C937.868 228.542 937.101 228.444 936.344 228.25C935.594 228.049 934.913 227.743 934.302 227.333C933.691 226.917 933.201 226.385 932.833 225.74C932.472 225.087 932.292 224.312 932.292 223.417H935.958C935.958 223.861 936.017 224.236 936.135 224.542C936.253 224.847 936.427 225.094 936.656 225.281C936.885 225.462 937.167 225.594 937.5 225.677C937.833 225.753 938.215 225.792 938.646 225.792C939.111 225.792 939.486 225.726 939.771 225.594C940.056 225.455 940.264 225.274 940.396 225.052C940.528 224.823 940.594 224.573 940.594 224.302Z" fill="white"/>
</svg>
