<svg width="1363" height="167" viewBox="0 0 1363 167" fill="none" xmlns="http://www.w3.org/2000/svg">
<rect width="1363" height="167" rx="15" fill="#F0F0F0"/>
<path d="M0 15C0 6.71573 6.71573 0 15 0H37V167H15C6.71573 167 0 160.284 0 152V15Z" fill="#424241"/>
<path d="M100.906 54.9219L93.3945 52.2383V49.0859L103.602 53.375V55.6367L100.906 54.9219ZM93.3945 57.1719L100.918 54.4297L103.602 53.7852V56.0352L93.3945 60.3242V57.1719ZM116.012 59.293L119.41 44.9375H121.309L121.742 47.3281L118.121 62H116.082L116.012 59.293ZM114.266 44.9375L117.078 59.293L116.844 62H114.57L110.785 44.9375H114.266ZM124.73 59.2344L127.508 44.9375H130.988L127.215 62H124.941L124.73 59.2344ZM122.375 44.9375L125.797 59.3516L125.703 62H123.664L120.02 47.3164L120.488 44.9375H122.375ZM138.148 62.2344C137.164 62.2344 136.281 62.0781 135.5 61.7656C134.719 61.4453 134.055 61.0039 133.508 60.4414C132.969 59.8789 132.555 59.2266 132.266 58.4844C131.977 57.7344 131.832 56.9375 131.832 56.0938V55.625C131.832 54.6641 131.969 53.7852 132.242 52.9883C132.516 52.1914 132.906 51.5 133.414 50.9141C133.93 50.3281 134.555 49.8789 135.289 49.5664C136.023 49.2461 136.852 49.0859 137.773 49.0859C138.672 49.0859 139.469 49.2344 140.164 49.5312C140.859 49.8281 141.441 50.25 141.91 50.7969C142.387 51.3438 142.746 52 142.988 52.7656C143.23 53.5234 143.352 54.3672 143.352 55.2969V56.7031H133.273V54.4531H140.035V54.1953C140.035 53.7266 139.949 53.3086 139.777 52.9414C139.613 52.5664 139.363 52.2695 139.027 52.0508C138.691 51.832 138.262 51.7227 137.738 51.7227C137.293 51.7227 136.91 51.8203 136.59 52.0156C136.27 52.2109 136.008 52.4844 135.805 52.8359C135.609 53.1875 135.461 53.6016 135.359 54.0781C135.266 54.5469 135.219 55.0625 135.219 55.625V56.0938C135.219 56.6016 135.289 57.0703 135.43 57.5C135.578 57.9297 135.785 58.3008 136.051 58.6133C136.324 58.9258 136.652 59.168 137.035 59.3398C137.426 59.5117 137.867 59.5977 138.359 59.5977C138.969 59.5977 139.535 59.4805 140.059 59.2461C140.59 59.0039 141.047 58.6406 141.43 58.1562L143.07 59.9375C142.805 60.3203 142.441 60.6875 141.98 61.0391C141.527 61.3906 140.98 61.6797 140.34 61.9062C139.699 62.125 138.969 62.2344 138.148 62.2344ZM148.578 52.0273V62H145.203V49.3203H148.367L148.578 52.0273ZM148.086 55.2148H147.172C147.172 54.2773 147.293 53.4336 147.535 52.6836C147.777 51.9258 148.117 51.2812 148.555 50.75C148.992 50.2109 149.512 49.8008 150.113 49.5195C150.723 49.2305 151.402 49.0859 152.152 49.0859C152.746 49.0859 153.289 49.1719 153.781 49.3438C154.273 49.5156 154.695 49.7891 155.047 50.1641C155.406 50.5391 155.68 51.0352 155.867 51.6523C156.062 52.2695 156.16 53.0234 156.16 53.9141V62H152.762V53.9023C152.762 53.3398 152.684 52.9023 152.527 52.5898C152.371 52.2773 152.141 52.0586 151.836 51.9336C151.539 51.8008 151.172 51.7344 150.734 51.7344C150.281 51.7344 149.887 51.8242 149.551 52.0039C149.223 52.1836 148.949 52.4336 148.73 52.7539C148.52 53.0664 148.359 53.4336 148.25 53.8555C148.141 54.2773 148.086 54.7305 148.086 55.2148ZM169.027 59.293L172.426 44.9375H174.324L174.758 47.3281L171.137 62H169.098L169.027 59.293ZM167.281 44.9375L170.094 59.293L169.859 62H167.586L163.801 44.9375H167.281ZM177.746 59.2344L180.523 44.9375H184.004L180.23 62H177.957L177.746 59.2344ZM175.391 44.9375L178.812 59.3516L178.719 62H176.68L173.035 47.3164L173.504 44.9375H175.391ZM192.148 59.1406V53.4922C192.148 53.0859 192.082 52.7383 191.949 52.4492C191.816 52.1523 191.609 51.9219 191.328 51.7578C191.055 51.5938 190.699 51.5117 190.262 51.5117C189.887 51.5117 189.562 51.5781 189.289 51.7109C189.016 51.8359 188.805 52.0195 188.656 52.2617C188.508 52.4961 188.434 52.7734 188.434 53.0938H185.059C185.059 52.5547 185.184 52.043 185.434 51.5586C185.684 51.0742 186.047 50.6484 186.523 50.2812C187 49.9062 187.566 49.6133 188.223 49.4023C188.887 49.1914 189.629 49.0859 190.449 49.0859C191.434 49.0859 192.309 49.25 193.074 49.5781C193.84 49.9062 194.441 50.3984 194.879 51.0547C195.324 51.7109 195.547 52.5312 195.547 53.5156V58.9414C195.547 59.6367 195.59 60.207 195.676 60.6523C195.762 61.0898 195.887 61.4727 196.051 61.8008V62H192.641C192.477 61.6562 192.352 61.2266 192.266 60.7109C192.188 60.1875 192.148 59.6641 192.148 59.1406ZM192.594 54.2773L192.617 56.1875H190.73C190.285 56.1875 189.898 56.2383 189.57 56.3398C189.242 56.4414 188.973 56.5859 188.762 56.7734C188.551 56.9531 188.395 57.1641 188.293 57.4062C188.199 57.6484 188.152 57.9141 188.152 58.2031C188.152 58.4922 188.219 58.7539 188.352 58.9883C188.484 59.2148 188.676 59.3945 188.926 59.5273C189.176 59.6523 189.469 59.7148 189.805 59.7148C190.312 59.7148 190.754 59.6133 191.129 59.4102C191.504 59.207 191.793 58.957 191.996 58.6602C192.207 58.3633 192.316 58.082 192.324 57.8164L193.215 59.2461C193.09 59.5664 192.918 59.8984 192.699 60.2422C192.488 60.5859 192.219 60.9102 191.891 61.2148C191.562 61.5117 191.168 61.7578 190.707 61.9531C190.246 62.1406 189.699 62.2344 189.066 62.2344C188.262 62.2344 187.531 62.0742 186.875 61.7539C186.227 61.4258 185.711 60.9766 185.328 60.4062C184.953 59.8281 184.766 59.1719 184.766 58.4375C184.766 57.7734 184.891 57.1836 185.141 56.668C185.391 56.1523 185.758 55.7188 186.242 55.3672C186.734 55.0078 187.348 54.7383 188.082 54.5586C188.816 54.3711 189.668 54.2773 190.637 54.2773H192.594ZM205.004 58.4961C205.004 58.2539 204.934 58.0352 204.793 57.8398C204.652 57.6445 204.391 57.4648 204.008 57.3008C203.633 57.1289 203.09 56.9727 202.379 56.832C201.738 56.6914 201.141 56.5156 200.586 56.3047C200.039 56.0859 199.562 55.8242 199.156 55.5195C198.758 55.2148 198.445 54.8555 198.219 54.4414C197.992 54.0195 197.879 53.5391 197.879 53C197.879 52.4688 197.992 51.9688 198.219 51.5C198.453 51.0312 198.785 50.6172 199.215 50.2578C199.652 49.8906 200.184 49.6055 200.809 49.4023C201.441 49.1914 202.152 49.0859 202.941 49.0859C204.043 49.0859 204.988 49.2617 205.777 49.6133C206.574 49.9648 207.184 50.4492 207.605 51.0664C208.035 51.6758 208.25 52.3711 208.25 53.1523H204.875C204.875 52.8242 204.805 52.5312 204.664 52.2734C204.531 52.0078 204.32 51.8008 204.031 51.6523C203.75 51.4961 203.383 51.418 202.93 51.418C202.555 51.418 202.23 51.4844 201.957 51.6172C201.684 51.7422 201.473 51.9141 201.324 52.1328C201.184 52.3438 201.113 52.5781 201.113 52.8359C201.113 53.0312 201.152 53.207 201.23 53.3633C201.316 53.5117 201.453 53.6484 201.641 53.7734C201.828 53.8984 202.07 54.0156 202.367 54.125C202.672 54.2266 203.047 54.3203 203.492 54.4062C204.406 54.5938 205.223 54.8398 205.941 55.1445C206.66 55.4414 207.23 55.8477 207.652 56.3633C208.074 56.8711 208.285 57.5391 208.285 58.3672C208.285 58.9297 208.16 59.4453 207.91 59.9141C207.66 60.3828 207.301 60.793 206.832 61.1445C206.363 61.4883 205.801 61.7578 205.145 61.9531C204.496 62.1406 203.766 62.2344 202.953 62.2344C201.773 62.2344 200.773 62.0234 199.953 61.6016C199.141 61.1797 198.523 60.6445 198.102 59.9961C197.688 59.3398 197.48 58.668 197.48 57.9805H200.68C200.695 58.4414 200.812 58.8125 201.031 59.0938C201.258 59.375 201.543 59.5781 201.887 59.7031C202.238 59.8281 202.617 59.8906 203.023 59.8906C203.461 59.8906 203.824 59.832 204.113 59.7148C204.402 59.5898 204.621 59.4258 204.77 59.2227C204.926 59.0117 205.004 58.7695 205.004 58.4961ZM216.312 62.2344C215.328 62.2344 214.445 62.0781 213.664 61.7656C212.883 61.4453 212.219 61.0039 211.672 60.4414C211.133 59.8789 210.719 59.2266 210.43 58.4844C210.141 57.7344 209.996 56.9375 209.996 56.0938V55.625C209.996 54.6641 210.133 53.7852 210.406 52.9883C210.68 52.1914 211.07 51.5 211.578 50.9141C212.094 50.3281 212.719 49.8789 213.453 49.5664C214.188 49.2461 215.016 49.0859 215.938 49.0859C216.836 49.0859 217.633 49.2344 218.328 49.5312C219.023 49.8281 219.605 50.25 220.074 50.7969C220.551 51.3438 220.91 52 221.152 52.7656C221.395 53.5234 221.516 54.3672 221.516 55.2969V56.7031H211.438V54.4531H218.199V54.1953C218.199 53.7266 218.113 53.3086 217.941 52.9414C217.777 52.5664 217.527 52.2695 217.191 52.0508C216.855 51.832 216.426 51.7227 215.902 51.7227C215.457 51.7227 215.074 51.8203 214.754 52.0156C214.434 52.2109 214.172 52.4844 213.969 52.8359C213.773 53.1875 213.625 53.6016 213.523 54.0781C213.43 54.5469 213.383 55.0625 213.383 55.625V56.0938C213.383 56.6016 213.453 57.0703 213.594 57.5C213.742 57.9297 213.949 58.3008 214.215 58.6133C214.488 58.9258 214.816 59.168 215.199 59.3398C215.59 59.5117 216.031 59.5977 216.523 59.5977C217.133 59.5977 217.699 59.4805 218.223 59.2461C218.754 59.0039 219.211 58.6406 219.594 58.1562L221.234 59.9375C220.969 60.3203 220.605 60.6875 220.145 61.0391C219.691 61.3906 219.145 61.6797 218.504 61.9062C217.863 62.125 217.133 62.2344 216.312 62.2344ZM227 44V62H223.613V44H227Z" fill="#888888"/>
<path d="M109.93 86.0078V118H102.217V86.0078H109.93ZM119.554 86.0078V91.9624H92.813V86.0078H119.554ZM132.012 118.439C130.079 118.439 128.35 118.139 126.827 117.539C125.303 116.923 124.014 116.081 122.959 115.012C121.919 113.942 121.121 112.712 120.564 111.32C120.022 109.929 119.751 108.457 119.751 106.904V106.069C119.751 104.326 119.993 102.714 120.477 101.235C120.96 99.7407 121.678 98.437 122.63 97.3237C123.582 96.2104 124.776 95.3462 126.211 94.731C127.647 94.1011 129.317 93.7861 131.221 93.7861C132.906 93.7861 134.415 94.0571 135.748 94.5991C137.081 95.1411 138.208 95.9175 139.131 96.9282C140.069 97.939 140.779 99.1621 141.263 100.598C141.761 102.033 142.01 103.645 142.01 105.432V108.442H122.586V103.806H134.781V103.234C134.795 102.443 134.656 101.77 134.363 101.213C134.085 100.656 133.675 100.231 133.133 99.9385C132.591 99.6455 131.932 99.499 131.155 99.499C130.35 99.499 129.683 99.6748 129.156 100.026C128.643 100.378 128.24 100.861 127.947 101.477C127.669 102.077 127.471 102.773 127.354 103.564C127.237 104.355 127.178 105.19 127.178 106.069V106.904C127.178 107.783 127.295 108.581 127.53 109.299C127.779 110.017 128.13 110.632 128.584 111.145C129.053 111.643 129.61 112.031 130.254 112.309C130.914 112.587 131.661 112.727 132.496 112.727C133.506 112.727 134.502 112.536 135.484 112.155C136.465 111.774 137.308 111.145 138.011 110.266L141.373 114.265C140.889 114.953 140.201 115.62 139.307 116.264C138.428 116.909 137.374 117.436 136.143 117.846C134.913 118.242 133.536 118.439 132.012 118.439ZM155.062 112.727C155.75 112.727 156.336 112.602 156.819 112.353C157.317 112.089 157.691 111.723 157.94 111.254C158.204 110.771 158.328 110.192 158.313 109.519H165.279C165.293 111.306 164.854 112.873 163.96 114.221C163.082 115.554 161.88 116.594 160.357 117.341C158.848 118.073 157.142 118.439 155.237 118.439C153.377 118.439 151.751 118.139 150.359 117.539C148.968 116.923 147.803 116.074 146.866 114.99C145.943 113.891 145.247 112.609 144.778 111.145C144.324 109.68 144.097 108.09 144.097 106.376V105.871C144.097 104.157 144.324 102.568 144.778 101.103C145.247 99.6235 145.943 98.3418 146.866 97.2578C147.803 96.1592 148.96 95.3096 150.337 94.709C151.729 94.0938 153.348 93.7861 155.193 93.7861C157.171 93.7861 158.914 94.1597 160.423 94.9067C161.946 95.6538 163.14 96.7378 164.004 98.1587C164.869 99.5796 165.293 101.301 165.279 103.322H158.313C158.328 102.604 158.218 101.96 157.984 101.389C157.75 100.817 157.383 100.363 156.885 100.026C156.402 99.6748 155.779 99.499 155.018 99.499C154.256 99.499 153.641 99.6675 153.172 100.004C152.703 100.341 152.344 100.81 152.095 101.411C151.861 101.997 151.7 102.67 151.612 103.432C151.539 104.194 151.502 105.007 151.502 105.871V106.376C151.502 107.255 151.539 108.083 151.612 108.859C151.7 109.621 151.868 110.295 152.117 110.881C152.366 111.452 152.725 111.906 153.194 112.243C153.663 112.565 154.285 112.727 155.062 112.727ZM175.694 84.25V118H168.289V84.25H175.694ZM174.815 105.3L173.079 105.344C173.079 103.674 173.284 102.136 173.694 100.729C174.104 99.3232 174.69 98.1001 175.452 97.0601C176.214 96.02 177.129 95.2144 178.199 94.6431C179.268 94.0718 180.455 93.7861 181.758 93.7861C182.93 93.7861 184 93.9546 184.966 94.2915C185.948 94.6284 186.79 95.1704 187.493 95.9175C188.211 96.6646 188.76 97.6387 189.141 98.8398C189.537 100.041 189.734 101.506 189.734 103.234V118H182.286V103.19C182.286 102.224 182.146 101.477 181.868 100.949C181.604 100.407 181.224 100.034 180.726 99.8286C180.228 99.6089 179.62 99.499 178.902 99.499C178.038 99.499 177.334 99.6455 176.792 99.9385C176.25 100.231 175.833 100.642 175.54 101.169C175.262 101.682 175.071 102.29 174.969 102.993C174.866 103.696 174.815 104.465 174.815 105.3ZM221.88 109.497C221.88 108.999 221.807 108.552 221.661 108.156C221.514 107.746 221.243 107.365 220.848 107.014C220.452 106.662 219.881 106.311 219.134 105.959C218.401 105.593 217.435 105.212 216.233 104.816C214.827 104.348 213.472 103.82 212.168 103.234C210.865 102.634 209.7 101.938 208.675 101.147C207.649 100.341 206.836 99.4038 206.236 98.3345C205.635 97.2505 205.335 95.9907 205.335 94.5552C205.335 93.1782 205.643 91.9404 206.258 90.8418C206.873 89.7285 207.73 88.7837 208.829 88.0073C209.942 87.2163 211.246 86.6157 212.74 86.2056C214.234 85.7808 215.867 85.5684 217.64 85.5684C219.983 85.5684 222.049 85.9785 223.836 86.7988C225.638 87.6045 227.044 88.7544 228.055 90.2485C229.08 91.728 229.593 93.4785 229.593 95.5H221.924C221.924 94.6943 221.756 93.9839 221.419 93.3687C221.097 92.7534 220.606 92.27 219.947 91.9185C219.288 91.5669 218.46 91.3911 217.464 91.3911C216.497 91.3911 215.684 91.5376 215.025 91.8306C214.366 92.1235 213.868 92.519 213.531 93.0171C213.194 93.5005 213.025 94.0352 213.025 94.6211C213.025 95.1045 213.157 95.5439 213.421 95.9395C213.699 96.3203 214.087 96.6792 214.585 97.0161C215.098 97.353 215.713 97.6753 216.431 97.9829C217.164 98.2905 217.984 98.5908 218.892 98.8838C220.591 99.4258 222.1 100.034 223.418 100.708C224.751 101.367 225.872 102.121 226.78 102.971C227.703 103.806 228.399 104.758 228.868 105.827C229.351 106.896 229.593 108.105 229.593 109.453C229.593 110.888 229.314 112.163 228.758 113.276C228.201 114.389 227.403 115.334 226.363 116.11C225.323 116.872 224.078 117.451 222.627 117.846C221.177 118.242 219.559 118.439 217.771 118.439C216.131 118.439 214.512 118.234 212.916 117.824C211.333 117.399 209.898 116.755 208.609 115.891C207.32 115.012 206.287 113.891 205.511 112.529C204.749 111.152 204.368 109.519 204.368 107.629H212.103C212.103 108.566 212.227 109.357 212.476 110.002C212.725 110.646 213.091 111.167 213.575 111.562C214.058 111.943 214.651 112.221 215.354 112.397C216.058 112.558 216.863 112.639 217.771 112.639C218.753 112.639 219.544 112.5 220.145 112.221C220.745 111.928 221.185 111.547 221.463 111.079C221.741 110.595 221.88 110.068 221.88 109.497ZM245.743 94.2256V99.3672H231.417V94.2256H245.743ZM234.427 88.3149H241.832V110.244C241.832 110.874 241.905 111.364 242.051 111.716C242.198 112.053 242.447 112.294 242.798 112.441C243.165 112.573 243.648 112.639 244.249 112.639C244.673 112.639 245.025 112.631 245.303 112.617C245.582 112.587 245.845 112.551 246.094 112.507V117.802C245.464 118.007 244.805 118.161 244.117 118.264C243.428 118.381 242.696 118.439 241.919 118.439C240.337 118.439 238.982 118.19 237.854 117.692C236.741 117.194 235.892 116.411 235.306 115.341C234.72 114.272 234.427 112.88 234.427 111.167V88.3149ZM261.036 112.023V102.224C261.036 101.55 260.94 100.971 260.75 100.488C260.56 100.004 260.259 99.6309 259.849 99.3672C259.439 99.0889 258.89 98.9497 258.201 98.9497C257.645 98.9497 257.168 99.0449 256.773 99.2354C256.377 99.4258 256.077 99.7114 255.872 100.092C255.667 100.473 255.564 100.957 255.564 101.542H248.16C248.16 100.444 248.401 99.4258 248.885 98.4883C249.383 97.5361 250.086 96.7085 250.994 96.0054C251.917 95.3022 253.016 94.7603 254.29 94.3794C255.579 93.9839 257.015 93.7861 258.597 93.7861C260.486 93.7861 262.171 94.1011 263.65 94.731C265.145 95.3608 266.324 96.3057 267.188 97.5654C268.052 98.8105 268.484 100.378 268.484 102.268V112.001C268.484 113.554 268.572 114.733 268.748 115.539C268.924 116.33 269.173 117.026 269.495 117.626V118H262.068C261.717 117.268 261.453 116.374 261.277 115.319C261.116 114.25 261.036 113.151 261.036 112.023ZM261.937 103.476L261.98 107.431H258.707C258.018 107.431 257.432 107.526 256.949 107.717C256.48 107.907 256.099 108.171 255.806 108.508C255.528 108.83 255.323 109.196 255.191 109.606C255.074 110.017 255.015 110.449 255.015 110.903C255.015 111.342 255.118 111.738 255.323 112.089C255.542 112.426 255.835 112.69 256.202 112.88C256.568 113.071 256.978 113.166 257.432 113.166C258.252 113.166 258.948 113.012 259.52 112.705C260.105 112.382 260.552 111.994 260.86 111.54C261.167 111.086 261.321 110.661 261.321 110.266L262.947 113.298C262.654 113.884 262.317 114.477 261.937 115.078C261.57 115.678 261.109 116.235 260.552 116.748C260.01 117.246 259.344 117.656 258.553 117.978C257.762 118.286 256.802 118.439 255.674 118.439C254.209 118.439 252.862 118.139 251.631 117.539C250.416 116.938 249.441 116.103 248.709 115.034C247.977 113.95 247.61 112.705 247.61 111.298C247.61 110.068 247.83 108.969 248.27 108.002C248.724 107.036 249.405 106.215 250.313 105.542C251.221 104.868 252.378 104.355 253.785 104.003C255.191 103.652 256.846 103.476 258.75 103.476H261.937ZM282.635 112.727C283.323 112.727 283.909 112.602 284.393 112.353C284.891 112.089 285.264 111.723 285.513 111.254C285.777 110.771 285.901 110.192 285.887 109.519H292.852C292.867 111.306 292.427 112.873 291.534 114.221C290.655 115.554 289.454 116.594 287.93 117.341C286.421 118.073 284.715 118.439 282.811 118.439C280.95 118.439 279.324 118.139 277.933 117.539C276.541 116.923 275.376 116.074 274.439 114.99C273.516 113.891 272.82 112.609 272.352 111.145C271.897 109.68 271.67 108.09 271.67 106.376V105.871C271.67 104.157 271.897 102.568 272.352 101.103C272.82 99.6235 273.516 98.3418 274.439 97.2578C275.376 96.1592 276.534 95.3096 277.911 94.709C279.302 94.0938 280.921 93.7861 282.767 93.7861C284.744 93.7861 286.487 94.1597 287.996 94.9067C289.52 95.6538 290.713 96.7378 291.578 98.1587C292.442 99.5796 292.867 101.301 292.852 103.322H285.887C285.901 102.604 285.792 101.96 285.557 101.389C285.323 100.817 284.957 100.363 284.458 100.026C283.975 99.6748 283.353 99.499 282.591 99.499C281.829 99.499 281.214 99.6675 280.745 100.004C280.276 100.341 279.917 100.81 279.668 101.411C279.434 101.997 279.273 102.67 279.185 103.432C279.112 104.194 279.075 105.007 279.075 105.871V106.376C279.075 107.255 279.112 108.083 279.185 108.859C279.273 109.621 279.441 110.295 279.69 110.881C279.939 111.452 280.298 111.906 280.767 112.243C281.236 112.565 281.858 112.727 282.635 112.727ZM303.487 84.228V118H296.082V84.228H303.487ZM318.692 94.2256L308.365 106.333L302.959 111.738L299.729 107.036L304.234 101.169L309.815 94.2256H318.692ZM310.76 118L304.41 107.167L309.881 103.278L319.241 118H310.76Z" fill="#424241"/>
<path d="M1363 15C1363 6.71573 1356.28 0 1348 0H1134V167H1348C1356.28 167 1363 160.284 1363 152V15Z" fill="#FF9E0D"/>
<path fill-rule="evenodd" clip-rule="evenodd" d="M1218.5 55C1218.37 55 1218.24 55.0527 1218.15 55.1464C1218.05 55.2402 1218 55.3674 1218 55.5V111.5C1218 111.633 1218.05 111.76 1218.15 111.854C1218.24 111.947 1218.37 112 1218.5 112H1278C1278.13 112 1278.26 111.947 1278.35 111.854C1278.45 111.76 1278.5 111.633 1278.5 111.5V66C1278.5 65.8674 1278.45 65.7402 1278.35 65.6464C1278.26 65.5527 1278.13 65.5 1278 65.5H1248.25C1247.36 65.5 1246.52 65.1045 1245.95 64.4206L1238.09 55H1218.5ZM1213.9 50.9038C1215.12 49.6848 1216.78 49 1218.5 49H1239.5C1240.39 49 1241.23 49.3955 1241.8 50.0794L1249.66 59.5H1278C1279.72 59.5 1281.38 60.1848 1282.6 61.4038C1283.82 62.6228 1284.5 64.2761 1284.5 66V111.5C1284.5 113.224 1283.82 114.877 1282.6 116.096C1281.38 117.315 1279.72 118 1278 118H1218.5C1216.78 118 1215.12 117.315 1213.9 116.096C1212.68 114.877 1212 113.224 1212 111.5V55.5C1212 53.7761 1212.68 52.1228 1213.9 50.9038Z" fill="white"/>
<path fill-rule="evenodd" clip-rule="evenodd" d="M1243.72 77.5251C1245.09 78.892 1245.09 81.108 1243.72 82.4749L1237.45 88.75L1243.72 95.0251C1245.09 96.392 1245.09 98.608 1243.72 99.9749C1242.36 101.342 1240.14 101.342 1238.78 99.9749L1230.03 91.2249C1228.66 89.858 1228.66 87.642 1230.03 86.2751L1238.78 77.5251C1240.14 76.1583 1242.36 76.1583 1243.72 77.5251Z" fill="white"/>
<path fill-rule="evenodd" clip-rule="evenodd" d="M1252.03 99.9749C1250.66 98.608 1250.66 96.392 1252.03 95.0251L1258.3 88.75L1252.03 82.4749C1250.66 81.108 1250.66 78.892 1252.03 77.5251C1253.39 76.1583 1255.61 76.1583 1256.97 77.5251L1265.72 86.2751C1267.09 87.642 1267.09 89.858 1265.72 91.2249L1256.97 99.9749C1255.61 101.342 1253.39 101.342 1252.03 99.9749Z" fill="white"/>
</svg>
