<svg width="1363" height="167" viewBox="0 0 1363 167" fill="none" xmlns="http://www.w3.org/2000/svg">
<rect width="1363" height="167" rx="15" fill="#F0F0F0"/>
<path d="M0 15C0 6.71573 6.71573 0 15 0H37V167H15C6.71573 167 0 160.284 0 152V15Z" fill="#424241"/>
<path d="M100.906 54.9219L93.3945 52.2383V49.0859L103.602 53.375V55.6367L100.906 54.9219ZM93.3945 57.1719L100.918 54.4297L103.602 53.7852V56.0352L93.3945 60.3242V57.1719ZM116.012 59.293L119.41 44.9375H121.309L121.742 47.3281L118.121 62H116.082L116.012 59.293ZM114.266 44.9375L117.078 59.293L116.844 62H114.57L110.785 44.9375H114.266ZM124.73 59.2344L127.508 44.9375H130.988L127.215 62H124.941L124.73 59.2344ZM122.375 44.9375L125.797 59.3516L125.703 62H123.664L120.02 47.3164L120.488 44.9375H122.375ZM138.148 62.2344C137.164 62.2344 136.281 62.0781 135.5 61.7656C134.719 61.4453 134.055 61.0039 133.508 60.4414C132.969 59.8789 132.555 59.2266 132.266 58.4844C131.977 57.7344 131.832 56.9375 131.832 56.0938V55.625C131.832 54.6641 131.969 53.7852 132.242 52.9883C132.516 52.1914 132.906 51.5 133.414 50.9141C133.93 50.3281 134.555 49.8789 135.289 49.5664C136.023 49.2461 136.852 49.0859 137.773 49.0859C138.672 49.0859 139.469 49.2344 140.164 49.5312C140.859 49.8281 141.441 50.25 141.91 50.7969C142.387 51.3438 142.746 52 142.988 52.7656C143.23 53.5234 143.352 54.3672 143.352 55.2969V56.7031H133.273V54.4531H140.035V54.1953C140.035 53.7266 139.949 53.3086 139.777 52.9414C139.613 52.5664 139.363 52.2695 139.027 52.0508C138.691 51.832 138.262 51.7227 137.738 51.7227C137.293 51.7227 136.91 51.8203 136.59 52.0156C136.27 52.2109 136.008 52.4844 135.805 52.8359C135.609 53.1875 135.461 53.6016 135.359 54.0781C135.266 54.5469 135.219 55.0625 135.219 55.625V56.0938C135.219 56.6016 135.289 57.0703 135.43 57.5C135.578 57.9297 135.785 58.3008 136.051 58.6133C136.324 58.9258 136.652 59.168 137.035 59.3398C137.426 59.5117 137.867 59.5977 138.359 59.5977C138.969 59.5977 139.535 59.4805 140.059 59.2461C140.59 59.0039 141.047 58.6406 141.43 58.1562L143.07 59.9375C142.805 60.3203 142.441 60.6875 141.98 61.0391C141.527 61.3906 140.98 61.6797 140.34 61.9062C139.699 62.125 138.969 62.2344 138.148 62.2344ZM148.578 52.0273V62H145.203V49.3203H148.367L148.578 52.0273ZM148.086 55.2148H147.172C147.172 54.2773 147.293 53.4336 147.535 52.6836C147.777 51.9258 148.117 51.2812 148.555 50.75C148.992 50.2109 149.512 49.8008 150.113 49.5195C150.723 49.2305 151.402 49.0859 152.152 49.0859C152.746 49.0859 153.289 49.1719 153.781 49.3438C154.273 49.5156 154.695 49.7891 155.047 50.1641C155.406 50.5391 155.68 51.0352 155.867 51.6523C156.062 52.2695 156.16 53.0234 156.16 53.9141V62H152.762V53.9023C152.762 53.3398 152.684 52.9023 152.527 52.5898C152.371 52.2773 152.141 52.0586 151.836 51.9336C151.539 51.8008 151.172 51.7344 150.734 51.7344C150.281 51.7344 149.887 51.8242 149.551 52.0039C149.223 52.1836 148.949 52.4336 148.73 52.7539C148.52 53.0664 148.359 53.4336 148.25 53.8555C148.141 54.2773 148.086 54.7305 148.086 55.2148ZM169.027 59.293L172.426 44.9375H174.324L174.758 47.3281L171.137 62H169.098L169.027 59.293ZM167.281 44.9375L170.094 59.293L169.859 62H167.586L163.801 44.9375H167.281ZM177.746 59.2344L180.523 44.9375H184.004L180.23 62H177.957L177.746 59.2344ZM175.391 44.9375L178.812 59.3516L178.719 62H176.68L173.035 47.3164L173.504 44.9375H175.391ZM192.148 59.1406V53.4922C192.148 53.0859 192.082 52.7383 191.949 52.4492C191.816 52.1523 191.609 51.9219 191.328 51.7578C191.055 51.5938 190.699 51.5117 190.262 51.5117C189.887 51.5117 189.562 51.5781 189.289 51.7109C189.016 51.8359 188.805 52.0195 188.656 52.2617C188.508 52.4961 188.434 52.7734 188.434 53.0938H185.059C185.059 52.5547 185.184 52.043 185.434 51.5586C185.684 51.0742 186.047 50.6484 186.523 50.2812C187 49.9062 187.566 49.6133 188.223 49.4023C188.887 49.1914 189.629 49.0859 190.449 49.0859C191.434 49.0859 192.309 49.25 193.074 49.5781C193.84 49.9062 194.441 50.3984 194.879 51.0547C195.324 51.7109 195.547 52.5312 195.547 53.5156V58.9414C195.547 59.6367 195.59 60.207 195.676 60.6523C195.762 61.0898 195.887 61.4727 196.051 61.8008V62H192.641C192.477 61.6562 192.352 61.2266 192.266 60.7109C192.188 60.1875 192.148 59.6641 192.148 59.1406ZM192.594 54.2773L192.617 56.1875H190.73C190.285 56.1875 189.898 56.2383 189.57 56.3398C189.242 56.4414 188.973 56.5859 188.762 56.7734C188.551 56.9531 188.395 57.1641 188.293 57.4062C188.199 57.6484 188.152 57.9141 188.152 58.2031C188.152 58.4922 188.219 58.7539 188.352 58.9883C188.484 59.2148 188.676 59.3945 188.926 59.5273C189.176 59.6523 189.469 59.7148 189.805 59.7148C190.312 59.7148 190.754 59.6133 191.129 59.4102C191.504 59.207 191.793 58.957 191.996 58.6602C192.207 58.3633 192.316 58.082 192.324 57.8164L193.215 59.2461C193.09 59.5664 192.918 59.8984 192.699 60.2422C192.488 60.5859 192.219 60.9102 191.891 61.2148C191.562 61.5117 191.168 61.7578 190.707 61.9531C190.246 62.1406 189.699 62.2344 189.066 62.2344C188.262 62.2344 187.531 62.0742 186.875 61.7539C186.227 61.4258 185.711 60.9766 185.328 60.4062C184.953 59.8281 184.766 59.1719 184.766 58.4375C184.766 57.7734 184.891 57.1836 185.141 56.668C185.391 56.1523 185.758 55.7188 186.242 55.3672C186.734 55.0078 187.348 54.7383 188.082 54.5586C188.816 54.3711 189.668 54.2773 190.637 54.2773H192.594ZM205.004 58.4961C205.004 58.2539 204.934 58.0352 204.793 57.8398C204.652 57.6445 204.391 57.4648 204.008 57.3008C203.633 57.1289 203.09 56.9727 202.379 56.832C201.738 56.6914 201.141 56.5156 200.586 56.3047C200.039 56.0859 199.562 55.8242 199.156 55.5195C198.758 55.2148 198.445 54.8555 198.219 54.4414C197.992 54.0195 197.879 53.5391 197.879 53C197.879 52.4688 197.992 51.9688 198.219 51.5C198.453 51.0312 198.785 50.6172 199.215 50.2578C199.652 49.8906 200.184 49.6055 200.809 49.4023C201.441 49.1914 202.152 49.0859 202.941 49.0859C204.043 49.0859 204.988 49.2617 205.777 49.6133C206.574 49.9648 207.184 50.4492 207.605 51.0664C208.035 51.6758 208.25 52.3711 208.25 53.1523H204.875C204.875 52.8242 204.805 52.5312 204.664 52.2734C204.531 52.0078 204.32 51.8008 204.031 51.6523C203.75 51.4961 203.383 51.418 202.93 51.418C202.555 51.418 202.23 51.4844 201.957 51.6172C201.684 51.7422 201.473 51.9141 201.324 52.1328C201.184 52.3438 201.113 52.5781 201.113 52.8359C201.113 53.0312 201.152 53.207 201.23 53.3633C201.316 53.5117 201.453 53.6484 201.641 53.7734C201.828 53.8984 202.07 54.0156 202.367 54.125C202.672 54.2266 203.047 54.3203 203.492 54.4062C204.406 54.5938 205.223 54.8398 205.941 55.1445C206.66 55.4414 207.23 55.8477 207.652 56.3633C208.074 56.8711 208.285 57.5391 208.285 58.3672C208.285 58.9297 208.16 59.4453 207.91 59.9141C207.66 60.3828 207.301 60.793 206.832 61.1445C206.363 61.4883 205.801 61.7578 205.145 61.9531C204.496 62.1406 203.766 62.2344 202.953 62.2344C201.773 62.2344 200.773 62.0234 199.953 61.6016C199.141 61.1797 198.523 60.6445 198.102 59.9961C197.688 59.3398 197.48 58.668 197.48 57.9805H200.68C200.695 58.4414 200.812 58.8125 201.031 59.0938C201.258 59.375 201.543 59.5781 201.887 59.7031C202.238 59.8281 202.617 59.8906 203.023 59.8906C203.461 59.8906 203.824 59.832 204.113 59.7148C204.402 59.5898 204.621 59.4258 204.77 59.2227C204.926 59.0117 205.004 58.7695 205.004 58.4961ZM216.312 62.2344C215.328 62.2344 214.445 62.0781 213.664 61.7656C212.883 61.4453 212.219 61.0039 211.672 60.4414C211.133 59.8789 210.719 59.2266 210.43 58.4844C210.141 57.7344 209.996 56.9375 209.996 56.0938V55.625C209.996 54.6641 210.133 53.7852 210.406 52.9883C210.68 52.1914 211.07 51.5 211.578 50.9141C212.094 50.3281 212.719 49.8789 213.453 49.5664C214.188 49.2461 215.016 49.0859 215.938 49.0859C216.836 49.0859 217.633 49.2344 218.328 49.5312C219.023 49.8281 219.605 50.25 220.074 50.7969C220.551 51.3438 220.91 52 221.152 52.7656C221.395 53.5234 221.516 54.3672 221.516 55.2969V56.7031H211.438V54.4531H218.199V54.1953C218.199 53.7266 218.113 53.3086 217.941 52.9414C217.777 52.5664 217.527 52.2695 217.191 52.0508C216.855 51.832 216.426 51.7227 215.902 51.7227C215.457 51.7227 215.074 51.8203 214.754 52.0156C214.434 52.2109 214.172 52.4844 213.969 52.8359C213.773 53.1875 213.625 53.6016 213.523 54.0781C213.43 54.5469 213.383 55.0625 213.383 55.625V56.0938C213.383 56.6016 213.453 57.0703 213.594 57.5C213.742 57.9297 213.949 58.3008 214.215 58.6133C214.488 58.9258 214.816 59.168 215.199 59.3398C215.59 59.5117 216.031 59.5977 216.523 59.5977C217.133 59.5977 217.699 59.4805 218.223 59.2461C218.754 59.0039 219.211 58.6406 219.594 58.1562L221.234 59.9375C220.969 60.3203 220.605 60.6875 220.145 61.0391C219.691 61.3906 219.145 61.6797 218.504 61.9062C217.863 62.125 217.133 62.2344 216.312 62.2344ZM227 44V62H223.613V44H227Z" fill="#888888"/>
<path d="M107.205 107.146H99.251V101.191H107.205C108.289 101.191 109.168 101.008 109.842 100.642C110.516 100.275 111.006 99.77 111.314 99.1255C111.636 98.4663 111.797 97.7266 111.797 96.9062C111.797 96.0273 111.636 95.2144 111.314 94.4673C111.006 93.7202 110.516 93.1196 109.842 92.6655C109.168 92.1968 108.289 91.9624 107.205 91.9624H102.151V118H94.439V86.0078H107.205C109.769 86.0078 111.973 86.4766 113.819 87.4141C115.679 88.3516 117.107 89.6406 118.104 91.2812C119.1 92.9072 119.598 94.7676 119.598 96.8623C119.598 98.9277 119.1 100.729 118.104 102.268C117.107 103.806 115.679 105.007 113.819 105.871C111.973 106.721 109.769 107.146 107.205 107.146ZM130.87 100.114V118H123.465V94.2256H130.386L130.87 100.114ZM137.901 94.0498L137.769 100.927C137.476 100.898 137.081 100.861 136.583 100.817C136.084 100.773 135.667 100.751 135.33 100.751C134.466 100.751 133.719 100.854 133.089 101.059C132.474 101.25 131.961 101.542 131.551 101.938C131.155 102.319 130.862 102.802 130.672 103.388C130.496 103.974 130.416 104.655 130.43 105.432L129.09 104.553C129.09 102.956 129.244 101.506 129.551 100.202C129.874 98.8838 130.328 97.7485 130.914 96.7964C131.5 95.8296 132.21 95.0898 133.045 94.5771C133.88 94.0498 134.817 93.7861 135.857 93.7861C136.224 93.7861 136.583 93.8081 136.934 93.8521C137.3 93.896 137.623 93.9619 137.901 94.0498ZM138.736 106.354V105.893C138.736 104.15 138.985 102.546 139.483 101.081C139.981 99.6016 140.713 98.3198 141.68 97.2358C142.647 96.1519 143.841 95.3096 145.262 94.709C146.683 94.0938 148.323 93.7861 150.184 93.7861C152.059 93.7861 153.707 94.0938 155.127 94.709C156.563 95.3096 157.764 96.1519 158.731 97.2358C159.698 98.3198 160.43 99.6016 160.928 101.081C161.426 102.546 161.675 104.15 161.675 105.893V106.354C161.675 108.083 161.426 109.687 160.928 111.167C160.43 112.631 159.698 113.913 158.731 115.012C157.764 116.096 156.57 116.938 155.149 117.539C153.729 118.139 152.088 118.439 150.228 118.439C148.367 118.439 146.719 118.139 145.284 117.539C143.848 116.938 142.647 116.096 141.68 115.012C140.713 113.913 139.981 112.631 139.483 111.167C138.985 109.687 138.736 108.083 138.736 106.354ZM146.141 105.893V106.354C146.141 107.248 146.207 108.083 146.338 108.859C146.47 109.636 146.69 110.317 146.998 110.903C147.305 111.474 147.723 111.921 148.25 112.243C148.777 112.565 149.437 112.727 150.228 112.727C151.004 112.727 151.648 112.565 152.161 112.243C152.688 111.921 153.106 111.474 153.414 110.903C153.721 110.317 153.941 109.636 154.073 108.859C154.205 108.083 154.271 107.248 154.271 106.354V105.893C154.271 105.029 154.205 104.216 154.073 103.454C153.941 102.678 153.721 101.997 153.414 101.411C153.106 100.81 152.688 100.341 152.161 100.004C151.634 99.6675 150.975 99.499 150.184 99.499C149.407 99.499 148.755 99.6675 148.228 100.004C147.715 100.341 147.305 100.81 146.998 101.411C146.69 101.997 146.47 102.678 146.338 103.454C146.207 104.216 146.141 105.029 146.141 105.893ZM177.496 94.2256V99.3672H163.169V94.2256H177.496ZM166.18 88.3149H173.584V110.244C173.584 110.874 173.658 111.364 173.804 111.716C173.951 112.053 174.2 112.294 174.551 112.441C174.917 112.573 175.401 112.639 176.001 112.639C176.426 112.639 176.778 112.631 177.056 112.617C177.334 112.587 177.598 112.551 177.847 112.507V117.802C177.217 118.007 176.558 118.161 175.87 118.264C175.181 118.381 174.449 118.439 173.672 118.439C172.09 118.439 170.735 118.19 169.607 117.692C168.494 117.194 167.645 116.411 167.059 115.341C166.473 114.272 166.18 112.88 166.18 111.167V88.3149ZM178.858 106.354V105.893C178.858 104.15 179.107 102.546 179.605 101.081C180.103 99.6016 180.835 98.3198 181.802 97.2358C182.769 96.1519 183.963 95.3096 185.384 94.709C186.805 94.0938 188.445 93.7861 190.306 93.7861C192.181 93.7861 193.829 94.0938 195.25 94.709C196.685 95.3096 197.886 96.1519 198.853 97.2358C199.82 98.3198 200.552 99.6016 201.05 101.081C201.548 102.546 201.797 104.15 201.797 105.893V106.354C201.797 108.083 201.548 109.687 201.05 111.167C200.552 112.631 199.82 113.913 198.853 115.012C197.886 116.096 196.692 116.938 195.271 117.539C193.851 118.139 192.21 118.439 190.35 118.439C188.489 118.439 186.841 118.139 185.406 117.539C183.97 116.938 182.769 116.096 181.802 115.012C180.835 113.913 180.103 112.631 179.605 111.167C179.107 109.687 178.858 108.083 178.858 106.354ZM186.263 105.893V106.354C186.263 107.248 186.329 108.083 186.46 108.859C186.592 109.636 186.812 110.317 187.12 110.903C187.427 111.474 187.845 111.921 188.372 112.243C188.899 112.565 189.559 112.727 190.35 112.727C191.126 112.727 191.771 112.565 192.283 112.243C192.811 111.921 193.228 111.474 193.536 110.903C193.843 110.317 194.063 109.636 194.195 108.859C194.327 108.083 194.393 107.248 194.393 106.354V105.893C194.393 105.029 194.327 104.216 194.195 103.454C194.063 102.678 193.843 101.997 193.536 101.411C193.228 100.81 192.811 100.341 192.283 100.004C191.756 99.6675 191.097 99.499 190.306 99.499C189.529 99.499 188.877 99.6675 188.35 100.004C187.837 100.341 187.427 100.81 187.12 101.411C186.812 101.997 186.592 102.678 186.46 103.454C186.329 104.216 186.263 105.029 186.263 105.893ZM217.618 94.2256V99.3672H203.292V94.2256H217.618ZM206.302 88.3149H213.707V110.244C213.707 110.874 213.78 111.364 213.926 111.716C214.073 112.053 214.322 112.294 214.673 112.441C215.04 112.573 215.523 112.639 216.124 112.639C216.548 112.639 216.9 112.631 217.178 112.617C217.457 112.587 217.72 112.551 217.969 112.507V117.802C217.339 118.007 216.68 118.161 215.992 118.264C215.303 118.381 214.571 118.439 213.794 118.439C212.212 118.439 210.857 118.19 209.729 117.692C208.616 117.194 207.767 116.411 207.181 115.341C206.595 114.272 206.302 112.88 206.302 111.167V88.3149ZM227.857 115.209L234.009 94.2256H241.963L232.405 121.538C232.2 122.138 231.929 122.783 231.592 123.471C231.255 124.174 230.794 124.841 230.208 125.471C229.622 126.101 228.868 126.613 227.945 127.009C227.037 127.404 225.909 127.602 224.561 127.602C223.843 127.602 223.316 127.565 222.979 127.492C222.657 127.434 222.159 127.324 221.485 127.163V121.867C221.675 121.867 221.836 121.867 221.968 121.867C222.115 121.867 222.276 121.867 222.452 121.867C223.243 121.867 223.873 121.787 224.341 121.625C224.825 121.464 225.191 121.23 225.44 120.922C225.704 120.615 225.909 120.241 226.055 119.802L227.857 115.209ZM226.297 94.2256L230.977 110.859L231.79 118.703H226.824L218.365 94.2256H226.297ZM251.368 98.7959V127.141H243.963V94.2256H250.862L251.368 98.7959ZM265.958 105.827V106.289C265.958 108.017 265.76 109.621 265.364 111.101C264.969 112.58 264.383 113.869 263.606 114.968C262.83 116.066 261.863 116.923 260.706 117.539C259.563 118.139 258.238 118.439 256.729 118.439C255.308 118.439 254.085 118.125 253.06 117.495C252.034 116.865 251.177 115.993 250.489 114.88C249.8 113.767 249.244 112.492 248.819 111.057C248.394 109.621 248.057 108.105 247.808 106.508V105.915C248.057 104.201 248.394 102.612 248.819 101.147C249.244 99.6675 249.8 98.3784 250.489 97.2798C251.177 96.1812 252.027 95.3242 253.038 94.709C254.063 94.0938 255.286 93.7861 256.707 93.7861C258.216 93.7861 259.542 94.0718 260.684 94.6431C261.841 95.2144 262.808 96.0347 263.584 97.104C264.375 98.1587 264.969 99.4258 265.364 100.905C265.76 102.385 265.958 104.025 265.958 105.827ZM258.553 106.289V105.827C258.553 104.904 258.487 104.062 258.355 103.3C258.223 102.524 258.011 101.85 257.718 101.279C257.439 100.708 257.066 100.268 256.597 99.9604C256.128 99.6528 255.55 99.499 254.861 99.499C254.07 99.499 253.404 99.6235 252.862 99.8726C252.334 100.107 251.91 100.473 251.587 100.971C251.28 101.455 251.06 102.062 250.928 102.795C250.811 103.513 250.76 104.355 250.774 105.322V107.124C250.745 108.237 250.855 109.218 251.104 110.068C251.353 110.903 251.785 111.555 252.4 112.023C253.016 112.492 253.851 112.727 254.905 112.727C255.608 112.727 256.194 112.565 256.663 112.243C257.132 111.906 257.505 111.445 257.784 110.859C258.062 110.258 258.26 109.57 258.377 108.793C258.494 108.017 258.553 107.182 258.553 106.289ZM277.076 94.2256V118H269.649V94.2256H277.076ZM269.209 88.0952C269.209 87.0405 269.59 86.1763 270.352 85.5024C271.114 84.8286 272.103 84.4917 273.318 84.4917C274.534 84.4917 275.523 84.8286 276.285 85.5024C277.046 86.1763 277.427 87.0405 277.427 88.0952C277.427 89.1499 277.046 90.0142 276.285 90.688C275.523 91.3618 274.534 91.6987 273.318 91.6987C272.103 91.6987 271.114 91.3618 270.352 90.688C269.59 90.0142 269.209 89.1499 269.209 88.0952ZM288.919 99.3013V118H281.514V94.2256H288.458L288.919 99.3013ZM288.04 105.3L286.304 105.344C286.304 103.527 286.524 101.909 286.963 100.488C287.403 99.0522 288.025 97.8364 288.831 96.8403C289.637 95.8442 290.596 95.0898 291.709 94.5771C292.837 94.0498 294.09 93.7861 295.467 93.7861C296.565 93.7861 297.569 93.9473 298.477 94.2695C299.4 94.5918 300.191 95.1118 300.85 95.8296C301.524 96.5474 302.037 97.4995 302.388 98.686C302.754 99.8579 302.938 101.308 302.938 103.037V118H295.489V103.015C295.489 102.062 295.357 101.337 295.093 100.839C294.83 100.327 294.449 99.9751 293.951 99.7847C293.453 99.5942 292.845 99.499 292.127 99.499C291.365 99.499 290.721 99.6455 290.193 99.9385C289.666 100.231 289.241 100.642 288.919 101.169C288.611 101.682 288.384 102.29 288.238 102.993C288.106 103.696 288.04 104.465 288.04 105.3ZM321.988 94.2256H328.711V117.077C328.711 119.274 328.206 121.135 327.195 122.658C326.185 124.196 324.771 125.361 322.955 126.152C321.153 126.958 319.043 127.36 316.626 127.36C315.557 127.36 314.466 127.221 313.353 126.943C312.239 126.679 311.199 126.284 310.232 125.756C309.266 125.229 308.453 124.577 307.793 123.801L310.892 119.45C311.492 120.124 312.247 120.695 313.155 121.164C314.063 121.647 315.132 121.889 316.363 121.889C317.432 121.889 318.326 121.699 319.043 121.318C319.776 120.937 320.333 120.38 320.713 119.648C321.094 118.93 321.285 118.059 321.285 117.033V99.8506L321.988 94.2256ZM306.189 106.398V105.937C306.189 104.135 306.409 102.495 306.849 101.015C307.303 99.521 307.947 98.2393 308.782 97.1699C309.632 96.0859 310.657 95.251 311.858 94.665C313.06 94.0791 314.415 93.7861 315.923 93.7861C317.549 93.7861 318.882 94.1011 319.922 94.731C320.977 95.3462 321.819 96.2104 322.449 97.3237C323.094 98.437 323.592 99.7407 323.943 101.235C324.31 102.714 324.617 104.311 324.866 106.025V106.574C324.617 108.186 324.273 109.709 323.833 111.145C323.409 112.565 322.852 113.825 322.164 114.924C321.475 116.022 320.611 116.887 319.571 117.517C318.545 118.132 317.315 118.439 315.879 118.439C314.385 118.439 313.038 118.139 311.836 117.539C310.65 116.938 309.632 116.096 308.782 115.012C307.947 113.928 307.303 112.653 306.849 111.188C306.409 109.724 306.189 108.127 306.189 106.398ZM313.594 105.937V106.398C313.594 107.292 313.675 108.12 313.836 108.881C314.012 109.643 314.275 110.317 314.627 110.903C314.979 111.474 315.411 111.921 315.923 112.243C316.451 112.565 317.066 112.727 317.769 112.727C318.838 112.727 319.703 112.5 320.362 112.045C321.021 111.591 321.497 110.947 321.79 110.112C322.083 109.277 322.208 108.295 322.164 107.167V105.432C322.193 104.465 322.127 103.615 321.966 102.883C321.805 102.136 321.548 101.513 321.197 101.015C320.86 100.517 320.406 100.144 319.834 99.8945C319.278 99.6309 318.604 99.499 317.813 99.499C317.125 99.499 316.517 99.6602 315.989 99.9824C315.462 100.305 315.022 100.759 314.671 101.345C314.319 101.916 314.048 102.597 313.858 103.388C313.682 104.165 313.594 105.014 313.594 105.937Z" fill="#424241"/>
<path d="M1363 15C1363 6.71573 1356.28 0 1348 0H1134V167H1348C1356.28 167 1363 160.284 1363 152V15Z" fill="#00DD02"/>
<path fill-rule="evenodd" clip-rule="evenodd" d="M1203 49C1203 47.8954 1203.9 47 1205 47H1292.5C1293.6 47 1294.5 47.8954 1294.5 49V118.996C1294.5 120.101 1293.6 120.996 1292.5 120.996H1205C1203.9 120.996 1203 120.101 1203 118.996V49ZM1207 51V55.4945H1290.5V51H1207ZM1290.5 59.4945H1235.44V116.996H1290.5V59.4945ZM1231.44 116.996V59.4945H1207V116.996H1231.44Z" fill="white"/>
<path fill-rule="evenodd" clip-rule="evenodd" d="M1209.97 64.8004C1209.97 63.6958 1210.87 62.8004 1211.97 62.8004H1225.97C1227.08 62.8004 1227.97 63.6958 1227.97 64.8004V84.1956C1227.97 85.3001 1227.08 86.1956 1225.97 86.1956H1211.97C1210.87 86.1956 1209.97 85.3001 1209.97 84.1956V64.8004ZM1213.97 66.8004V82.1956H1223.97V66.8004H1213.97ZM1239.58 65.6964C1239.58 64.5918 1240.47 63.6964 1241.58 63.6964H1284.5C1285.61 63.6964 1286.5 64.5918 1286.5 65.6964V111.905C1286.5 113.01 1285.61 113.905 1284.5 113.905H1241.58C1240.47 113.905 1239.58 113.01 1239.58 111.905V65.6964ZM1243.58 67.6964V109.905H1282.5V67.6964H1243.58ZM1209.81 95.9363C1209.81 94.8317 1210.71 93.9363 1211.81 93.9363H1220.73C1221.84 93.9363 1222.73 94.8317 1222.73 95.9363C1222.73 97.0409 1221.84 97.9363 1220.73 97.9363H1211.81C1210.71 97.9363 1209.81 97.0409 1209.81 95.9363ZM1209.81 102.936C1209.81 101.832 1210.71 100.936 1211.81 100.936H1226.35C1227.46 100.936 1228.35 101.832 1228.35 102.936C1228.35 104.041 1227.46 104.936 1226.35 104.936H1211.81C1210.71 104.936 1209.81 104.041 1209.81 102.936ZM1209.81 109.936C1209.81 108.832 1210.71 107.936 1211.81 107.936H1220.73C1221.84 107.936 1222.73 108.832 1222.73 109.936C1222.73 111.041 1221.84 111.936 1220.73 111.936H1211.81C1210.71 111.936 1209.81 111.041 1209.81 109.936Z" fill="white"/>
</svg>
