<svg width="1363" height="301" viewBox="0 0 1363 301" fill="none" xmlns="http://www.w3.org/2000/svg">
<rect width="1363" height="301" rx="15" fill="#F0F0F0"/>
<path d="M0 15C0 6.71573 6.71573 0 15 0H37V301H15C6.71573 301 0 294.284 0 286V15Z" fill="#FF9E0D"/>
<path d="M104.004 140.455L111.792 104.898H116.438L118.963 107.933L110.665 144H105.535L104.004 140.455ZM101.937 104.898L108.516 140.724L106.824 144H100.889L92.5908 104.898H101.937ZM123.233 140.536L129.759 104.898H139.078L130.779 144H124.871L123.233 140.536ZM119.795 104.898L127.771 140.67L126.16 144H121.031L112.544 107.879L115.176 104.898H119.795ZM155.567 144.537C153.204 144.537 151.091 144.17 149.229 143.436C147.367 142.684 145.792 141.655 144.502 140.348C143.231 139.041 142.256 137.537 141.575 135.836C140.913 134.135 140.582 132.336 140.582 130.438V129.417C140.582 127.287 140.877 125.318 141.468 123.509C142.059 121.683 142.936 120.09 144.1 118.729C145.263 117.368 146.722 116.312 148.477 115.56C150.232 114.79 152.273 114.405 154.6 114.405C156.659 114.405 158.503 114.736 160.132 115.399C161.762 116.061 163.14 117.01 164.268 118.246C165.414 119.481 166.282 120.976 166.873 122.73C167.482 124.485 167.786 126.454 167.786 128.639V132.318H144.046V126.651H158.951V125.953C158.969 124.986 158.799 124.163 158.44 123.482C158.1 122.802 157.599 122.283 156.937 121.925C156.274 121.567 155.468 121.388 154.52 121.388C153.535 121.388 152.72 121.603 152.076 122.032C151.449 122.462 150.957 123.053 150.599 123.805C150.258 124.539 150.017 125.389 149.874 126.356C149.73 127.323 149.659 128.343 149.659 129.417V130.438C149.659 131.512 149.802 132.488 150.088 133.365C150.393 134.243 150.822 134.994 151.377 135.621C151.95 136.23 152.631 136.704 153.418 137.044C154.224 137.385 155.137 137.555 156.158 137.555C157.393 137.555 158.611 137.322 159.81 136.856C161.01 136.391 162.039 135.621 162.898 134.547L167.007 139.435C166.417 140.276 165.575 141.091 164.483 141.878C163.409 142.666 162.12 143.311 160.616 143.812C159.112 144.295 157.429 144.537 155.567 144.537ZM180.354 121.146V144H171.304V114.942H179.791L180.354 121.146ZM179.28 128.478L177.159 128.531C177.159 126.311 177.427 124.333 177.964 122.596C178.501 120.842 179.262 119.356 180.247 118.138C181.232 116.921 182.404 115.999 183.765 115.372C185.144 114.728 186.674 114.405 188.357 114.405C189.7 114.405 190.927 114.602 192.037 114.996C193.165 115.39 194.131 116.026 194.937 116.903C195.761 117.78 196.387 118.944 196.817 120.394C197.264 121.826 197.488 123.599 197.488 125.711V144H188.384V125.685C188.384 124.521 188.223 123.635 187.901 123.026C187.579 122.399 187.113 121.97 186.504 121.737C185.896 121.504 185.153 121.388 184.275 121.388C183.344 121.388 182.557 121.567 181.912 121.925C181.268 122.283 180.748 122.784 180.354 123.429C179.979 124.055 179.701 124.798 179.522 125.658C179.361 126.517 179.28 127.457 179.28 128.478ZM225.66 140.455L233.448 104.898H238.094L240.618 107.933L232.32 144H227.19L225.66 140.455ZM223.592 104.898L230.171 140.724L228.479 144H222.544L214.246 104.898H223.592ZM244.888 140.536L251.414 104.898H260.733L252.435 144H246.526L244.888 140.536ZM241.451 104.898L249.427 140.67L247.815 144H242.686L234.2 107.879L236.832 104.898H241.451ZM278.189 136.695V124.718C278.189 123.894 278.073 123.187 277.84 122.596C277.607 122.005 277.24 121.549 276.739 121.227C276.237 120.886 275.566 120.716 274.725 120.716C274.044 120.716 273.462 120.833 272.979 121.065C272.496 121.298 272.129 121.647 271.878 122.113C271.627 122.578 271.502 123.169 271.502 123.885H262.452C262.452 122.542 262.747 121.298 263.338 120.152C263.947 118.989 264.806 117.977 265.916 117.118C267.044 116.258 268.387 115.596 269.944 115.13C271.52 114.647 273.274 114.405 275.208 114.405C277.518 114.405 279.576 114.79 281.385 115.56C283.211 116.33 284.652 117.485 285.708 119.024C286.765 120.546 287.293 122.462 287.293 124.771V136.668C287.293 138.566 287.4 140.007 287.615 140.992C287.83 141.959 288.134 142.809 288.528 143.543V144H279.451C279.021 143.105 278.699 142.013 278.484 140.724C278.287 139.417 278.189 138.074 278.189 136.695ZM279.29 126.249L279.344 131.083H275.342C274.501 131.083 273.785 131.199 273.194 131.432C272.621 131.664 272.155 131.987 271.797 132.398C271.457 132.792 271.207 133.24 271.045 133.741C270.902 134.243 270.831 134.771 270.831 135.326C270.831 135.863 270.956 136.346 271.207 136.776C271.475 137.188 271.833 137.51 272.281 137.743C272.728 137.975 273.23 138.092 273.785 138.092C274.787 138.092 275.638 137.904 276.336 137.528C277.052 137.134 277.598 136.66 277.974 136.104C278.35 135.549 278.538 135.03 278.538 134.547L280.525 138.253C280.167 138.969 279.756 139.694 279.29 140.428C278.842 141.162 278.278 141.843 277.598 142.469C276.936 143.078 276.121 143.579 275.154 143.973C274.188 144.349 273.015 144.537 271.636 144.537C269.846 144.537 268.199 144.17 266.695 143.436C265.209 142.702 264.018 141.681 263.123 140.375C262.228 139.05 261.78 137.528 261.78 135.809C261.78 134.305 262.049 132.962 262.586 131.781C263.141 130.599 263.973 129.597 265.083 128.773C266.194 127.949 267.608 127.323 269.327 126.893C271.045 126.463 273.069 126.249 275.396 126.249H279.29ZM307.542 135.836C307.542 135.335 307.372 134.905 307.032 134.547C306.709 134.171 306.137 133.831 305.313 133.526C304.489 133.204 303.335 132.882 301.849 132.56C300.434 132.255 299.1 131.852 297.847 131.351C296.612 130.85 295.529 130.241 294.598 129.525C293.667 128.809 292.933 127.958 292.396 126.974C291.876 125.989 291.617 124.861 291.617 123.59C291.617 122.354 291.876 121.191 292.396 120.099C292.933 118.989 293.711 118.013 294.732 117.171C295.77 116.312 297.033 115.641 298.519 115.157C300.005 114.656 301.696 114.405 303.594 114.405C306.208 114.405 308.464 114.808 310.362 115.614C312.26 116.402 313.719 117.512 314.739 118.944C315.778 120.358 316.297 121.996 316.297 123.858H307.247C307.247 123.124 307.121 122.498 306.871 121.979C306.638 121.459 306.253 121.065 305.716 120.797C305.179 120.51 304.463 120.367 303.567 120.367C302.941 120.367 302.368 120.484 301.849 120.716C301.347 120.949 300.944 121.271 300.64 121.683C300.336 122.095 300.184 122.578 300.184 123.133C300.184 123.527 300.273 123.885 300.452 124.208C300.649 124.512 300.944 124.798 301.338 125.067C301.732 125.318 302.234 125.55 302.842 125.765C303.451 125.962 304.185 126.141 305.044 126.302C306.996 126.66 308.822 127.171 310.523 127.833C312.224 128.495 313.602 129.435 314.659 130.653C315.733 131.87 316.27 133.508 316.27 135.567C316.27 136.856 315.975 138.047 315.384 139.139C314.793 140.213 313.943 141.162 312.833 141.986C311.722 142.792 310.389 143.418 308.831 143.866C307.273 144.313 305.519 144.537 303.567 144.537C300.792 144.537 298.447 144.045 296.531 143.06C294.616 142.057 293.165 140.804 292.181 139.3C291.214 137.778 290.73 136.239 290.73 134.681H299.163C299.199 135.576 299.414 136.31 299.808 136.883C300.219 137.456 300.765 137.877 301.446 138.146C302.126 138.414 302.914 138.548 303.809 138.548C304.633 138.548 305.313 138.432 305.85 138.199C306.405 137.966 306.826 137.653 307.112 137.259C307.399 136.847 307.542 136.373 307.542 135.836ZM334.585 144.537C332.222 144.537 330.11 144.17 328.248 143.436C326.386 142.684 324.81 141.655 323.521 140.348C322.25 139.041 321.274 137.537 320.594 135.836C319.931 134.135 319.6 132.336 319.6 130.438V129.417C319.6 127.287 319.896 125.318 320.486 123.509C321.077 121.683 321.954 120.09 323.118 118.729C324.282 117.368 325.741 116.312 327.496 115.56C329.25 114.79 331.291 114.405 333.619 114.405C335.678 114.405 337.522 114.736 339.151 115.399C340.78 116.061 342.159 117.01 343.287 118.246C344.432 119.481 345.301 120.976 345.892 122.73C346.5 124.485 346.805 126.454 346.805 128.639V132.318H323.064V126.651H337.969V125.953C337.987 124.986 337.817 124.163 337.459 123.482C337.119 122.802 336.618 122.283 335.955 121.925C335.293 121.567 334.487 121.388 333.538 121.388C332.553 121.388 331.739 121.603 331.094 122.032C330.468 122.462 329.975 123.053 329.617 123.805C329.277 124.539 329.035 125.389 328.892 126.356C328.749 127.323 328.677 128.343 328.677 129.417V130.438C328.677 131.512 328.82 132.488 329.107 133.365C329.411 134.243 329.841 134.994 330.396 135.621C330.969 136.23 331.649 136.704 332.437 137.044C333.243 137.385 334.156 137.555 335.176 137.555C336.412 137.555 337.629 137.322 338.829 136.856C340.028 136.391 341.058 135.621 341.917 134.547L346.026 139.435C345.435 140.276 344.594 141.091 343.501 141.878C342.427 142.666 341.138 143.311 339.634 143.812C338.13 144.295 336.447 144.537 334.585 144.537ZM360.044 102.75V144H350.967V102.75H360.044Z" fill="black"/>
<path d="M104.339 59.3726L97.5713 80H92.1196L101.365 55.1172H104.834L104.339 59.3726ZM109.961 80L103.177 59.3726L102.63 55.1172H106.133L115.43 80H109.961ZM109.654 70.7373V74.7534H96.5117V70.7373H109.654ZM122.625 53.75V80H117.686V53.75H122.625ZM131.888 61.5088V80H126.949V61.5088H131.888ZM126.641 56.6895C126.641 55.9717 126.892 55.3792 127.393 54.9121C127.894 54.445 128.567 54.2114 129.41 54.2114C130.241 54.2114 130.908 54.445 131.409 54.9121C131.922 55.3792 132.178 55.9717 132.178 56.6895C132.178 57.4072 131.922 57.9997 131.409 58.4668C130.908 58.9339 130.241 59.1675 129.41 59.1675C128.567 59.1675 127.894 58.9339 127.393 58.4668C126.892 57.9997 126.641 57.4072 126.641 56.6895ZM150.43 55.1172V80H145.32V55.1172H150.43ZM164.922 74.8901C164.922 74.5369 164.82 74.2179 164.615 73.9331C164.41 73.6483 164.028 73.3862 163.47 73.147C162.923 72.8963 162.131 72.6685 161.094 72.4634C160.16 72.2583 159.288 72.002 158.479 71.6943C157.682 71.3753 156.987 70.9937 156.395 70.5493C155.813 70.105 155.358 69.5809 155.027 68.9771C154.697 68.3618 154.532 67.6611 154.532 66.875C154.532 66.1003 154.697 65.3711 155.027 64.6875C155.369 64.0039 155.853 63.4001 156.48 62.876C157.118 62.3405 157.893 61.9246 158.804 61.6284C159.727 61.3208 160.764 61.167 161.915 61.167C163.521 61.167 164.9 61.4233 166.05 61.936C167.212 62.4487 168.101 63.1551 168.716 64.0552C169.343 64.9438 169.656 65.9578 169.656 67.0972H164.734C164.734 66.6187 164.632 66.1914 164.427 65.8154C164.233 65.4281 163.925 65.1261 163.504 64.9097C163.094 64.6818 162.558 64.5679 161.897 64.5679C161.351 64.5679 160.878 64.6647 160.479 64.8584C160.08 65.0407 159.773 65.2913 159.556 65.6104C159.351 65.918 159.249 66.2598 159.249 66.6357C159.249 66.9206 159.306 67.1769 159.419 67.4048C159.545 67.6213 159.744 67.8206 160.018 68.0029C160.291 68.1852 160.644 68.3561 161.077 68.5156C161.521 68.6637 162.068 68.8005 162.718 68.9258C164.051 69.1992 165.241 69.5581 166.29 70.0024C167.338 70.4354 168.169 71.0278 168.785 71.7798C169.4 72.5203 169.708 73.4945 169.708 74.7021C169.708 75.5225 169.525 76.2744 169.161 76.958C168.796 77.6416 168.272 78.2397 167.588 78.7524C166.905 79.2537 166.084 79.6468 165.127 79.9316C164.182 80.2051 163.117 80.3418 161.932 80.3418C160.211 80.3418 158.753 80.0342 157.557 79.4189C156.372 78.8037 155.472 78.0233 154.856 77.0776C154.253 76.1206 153.951 75.1408 153.951 74.1382H158.616C158.639 74.8104 158.81 75.3516 159.129 75.7617C159.459 76.1719 159.875 76.4681 160.376 76.6504C160.889 76.8327 161.442 76.9238 162.034 76.9238C162.672 76.9238 163.202 76.8384 163.624 76.6675C164.045 76.4852 164.364 76.2459 164.581 75.9497C164.808 75.6421 164.922 75.2889 164.922 74.8901ZM177.825 65.3369V80H172.886V61.5088H177.518L177.825 65.3369ZM177.142 70.105H175.774C175.774 68.8175 175.928 67.6326 176.236 66.5503C176.555 65.4565 177.016 64.5109 177.62 63.7134C178.235 62.9045 178.993 62.2778 179.893 61.8335C180.793 61.3892 181.836 61.167 183.021 61.167C183.841 61.167 184.593 61.2923 185.276 61.543C185.96 61.7822 186.547 62.1639 187.037 62.688C187.538 63.2007 187.925 63.8729 188.199 64.7046C188.472 65.5249 188.609 66.5104 188.609 67.6611V80H183.687V68.208C183.687 67.3649 183.573 66.7155 183.345 66.2598C183.117 65.804 182.793 65.485 182.371 65.3027C181.961 65.1204 181.465 65.0293 180.884 65.0293C180.246 65.0293 179.688 65.1603 179.209 65.4224C178.742 65.6844 178.355 66.049 178.047 66.5161C177.74 66.9718 177.512 67.5073 177.364 68.1226C177.216 68.7378 177.142 69.3986 177.142 70.105ZM188.147 69.541L186.387 69.7632C186.387 68.5555 186.535 67.4333 186.832 66.3965C187.139 65.3597 187.589 64.4482 188.182 63.6621C188.785 62.876 189.532 62.2664 190.42 61.8335C191.309 61.3892 192.334 61.167 193.497 61.167C194.385 61.167 195.194 61.298 195.923 61.5601C196.653 61.8107 197.273 62.2152 197.786 62.7734C198.31 63.3203 198.709 64.0381 198.982 64.9268C199.267 65.8154 199.41 66.9035 199.41 68.1909V80H194.471V68.1909C194.471 67.3364 194.357 66.687 194.129 66.2427C193.912 65.7869 193.593 65.4736 193.172 65.3027C192.762 65.1204 192.272 65.0293 191.702 65.0293C191.11 65.0293 190.591 65.1489 190.147 65.3882C189.703 65.616 189.332 65.9351 189.036 66.3452C188.74 66.7554 188.518 67.2339 188.37 67.7808C188.222 68.3162 188.147 68.903 188.147 69.541ZM213.201 75.8301V67.5928C213.201 67.0003 213.104 66.4933 212.911 66.0718C212.717 65.6388 212.415 65.3027 212.005 65.0635C211.606 64.8242 211.088 64.7046 210.45 64.7046C209.903 64.7046 209.43 64.8014 209.031 64.9951C208.632 65.1774 208.325 65.4451 208.108 65.7983C207.892 66.1401 207.784 66.5446 207.784 67.0117H202.862C202.862 66.2256 203.044 65.4793 203.409 64.7729C203.773 64.0666 204.303 63.4456 204.998 62.9102C205.693 62.3633 206.519 61.936 207.476 61.6284C208.444 61.3208 209.527 61.167 210.723 61.167C212.159 61.167 213.435 61.4062 214.551 61.8848C215.668 62.3633 216.545 63.0811 217.183 64.0381C217.833 64.9951 218.157 66.1914 218.157 67.627V75.5396C218.157 76.5535 218.22 77.3853 218.345 78.0347C218.471 78.6727 218.653 79.231 218.892 79.7095V80H213.919C213.68 79.4987 213.497 78.8721 213.372 78.1201C213.258 77.3568 213.201 76.5934 213.201 75.8301ZM213.851 68.7378L213.885 71.5234H211.133C210.484 71.5234 209.92 71.5975 209.441 71.7456C208.963 71.8937 208.57 72.1045 208.262 72.3779C207.955 72.64 207.727 72.9476 207.579 73.3008C207.442 73.654 207.374 74.0413 207.374 74.4629C207.374 74.8844 207.47 75.2661 207.664 75.6079C207.858 75.9383 208.137 76.2004 208.501 76.394C208.866 76.5763 209.293 76.6675 209.783 76.6675C210.524 76.6675 211.167 76.5194 211.714 76.2231C212.261 75.9269 212.683 75.5623 212.979 75.1294C213.287 74.6965 213.446 74.2863 213.458 73.8989L214.756 75.9839C214.574 76.451 214.323 76.9352 214.004 77.4365C213.697 77.9378 213.304 78.4106 212.825 78.855C212.347 79.2879 211.771 79.6468 211.099 79.9316C210.427 80.2051 209.629 80.3418 208.707 80.3418C207.533 80.3418 206.468 80.1082 205.511 79.6411C204.565 79.1626 203.813 78.5075 203.255 77.6758C202.708 76.8327 202.435 75.8757 202.435 74.8047C202.435 73.8363 202.617 72.9761 202.981 72.2241C203.346 71.4722 203.882 70.8398 204.588 70.3271C205.306 69.8031 206.2 69.41 207.271 69.1479C208.342 68.8745 209.584 68.7378 210.997 68.7378H213.851ZM227.146 61.5088V80H222.208V61.5088H227.146ZM221.9 56.6895C221.9 55.9717 222.151 55.3792 222.652 54.9121C223.153 54.445 223.825 54.2114 224.668 54.2114C225.5 54.2114 226.167 54.445 226.668 54.9121C227.181 55.3792 227.437 55.9717 227.437 56.6895C227.437 57.4072 227.181 57.9997 226.668 58.4668C226.167 58.9339 225.5 59.1675 224.668 59.1675C223.825 59.1675 223.153 58.9339 222.652 58.4668C222.151 57.9997 221.9 57.4072 221.9 56.6895ZM236.409 53.75V80H231.47V53.75H236.409Z" fill="#888888"/>
<rect x="92" y="181" width="1179" height="80" rx="13.3333" fill="#CCCCCC"/>
<rect x="107" y="196.333" width="208" height="49.3333" rx="4.66667" fill="#888888" stroke="#888888" stroke-width="4"/>
<path d="M150.833 213.167H156.802C157.969 213.167 158.983 213.34 159.844 213.687C160.705 214.035 161.368 214.549 161.833 215.229C162.306 215.91 162.542 216.75 162.542 217.75C162.542 218.618 162.406 219.344 162.135 219.927C161.865 220.51 161.486 220.993 161 221.375C160.521 221.75 159.962 222.059 159.323 222.302L158.125 222.979H153.115L153.094 220.156H156.802C157.267 220.156 157.653 220.073 157.958 219.906C158.264 219.74 158.493 219.503 158.646 219.198C158.806 218.885 158.885 218.514 158.885 218.083C158.885 217.646 158.806 217.271 158.646 216.958C158.486 216.646 158.25 216.406 157.937 216.24C157.632 216.073 157.253 215.99 156.802 215.99H154.49V228.333H150.833V213.167ZM159.135 228.333L155.781 221.625L159.656 221.604L163.052 228.177V228.333H159.135ZM170.042 228.542C169.125 228.542 168.306 228.399 167.583 228.115C166.861 227.823 166.25 227.424 165.75 226.917C165.257 226.41 164.878 225.826 164.615 225.167C164.358 224.507 164.229 223.809 164.229 223.073V222.677C164.229 221.851 164.344 221.087 164.573 220.385C164.802 219.677 165.142 219.059 165.594 218.531C166.045 218.003 166.611 217.594 167.292 217.302C167.972 217.003 168.764 216.854 169.667 216.854C170.465 216.854 171.181 216.983 171.813 217.24C172.444 217.497 172.979 217.865 173.417 218.344C173.861 218.823 174.198 219.403 174.427 220.083C174.663 220.764 174.781 221.528 174.781 222.375V223.802H165.573V221.604H171.354V221.333C171.361 220.958 171.295 220.639 171.156 220.375C171.024 220.111 170.83 219.91 170.573 219.771C170.316 219.632 170.003 219.562 169.635 219.562C169.253 219.562 168.938 219.646 168.688 219.812C168.444 219.979 168.253 220.208 168.115 220.5C167.983 220.785 167.889 221.115 167.833 221.49C167.778 221.865 167.75 222.26 167.75 222.677V223.073C167.75 223.49 167.806 223.868 167.917 224.208C168.035 224.549 168.201 224.84 168.417 225.083C168.639 225.319 168.903 225.503 169.208 225.635C169.521 225.767 169.875 225.833 170.271 225.833C170.75 225.833 171.222 225.743 171.688 225.562C172.153 225.382 172.552 225.083 172.885 224.667L174.479 226.562C174.25 226.889 173.924 227.205 173.5 227.51C173.083 227.816 172.583 228.066 172 228.26C171.417 228.448 170.764 228.542 170.042 228.542ZM182.063 225.5V220.854C182.063 220.535 182.017 220.26 181.927 220.031C181.837 219.802 181.694 219.625 181.5 219.5C181.306 219.368 181.045 219.302 180.719 219.302C180.455 219.302 180.229 219.347 180.042 219.437C179.854 219.528 179.712 219.663 179.615 219.844C179.517 220.024 179.469 220.253 179.469 220.531H175.958C175.958 220.01 176.073 219.528 176.302 219.083C176.538 218.632 176.872 218.24 177.302 217.906C177.74 217.573 178.26 217.316 178.865 217.135C179.476 216.948 180.156 216.854 180.906 216.854C181.802 216.854 182.601 217.003 183.302 217.302C184.01 217.601 184.569 218.049 184.979 218.646C185.389 219.236 185.594 219.979 185.594 220.875V225.49C185.594 226.226 185.635 226.785 185.719 227.167C185.802 227.542 185.92 227.872 186.073 228.156V228.333H182.552C182.385 227.986 182.26 227.562 182.177 227.062C182.101 226.556 182.063 226.035 182.063 225.5ZM182.49 221.448L182.51 223.323H180.958C180.632 223.323 180.354 223.368 180.125 223.458C179.903 223.549 179.722 223.674 179.583 223.833C179.451 223.986 179.354 224.16 179.292 224.354C179.236 224.549 179.208 224.753 179.208 224.969C179.208 225.177 179.257 225.365 179.354 225.531C179.458 225.691 179.597 225.816 179.771 225.906C179.944 225.997 180.139 226.042 180.354 226.042C180.743 226.042 181.073 225.969 181.344 225.823C181.622 225.67 181.833 225.486 181.979 225.271C182.125 225.056 182.198 224.854 182.198 224.667L182.969 226.104C182.83 226.382 182.67 226.663 182.49 226.948C182.316 227.233 182.097 227.497 181.833 227.74C181.576 227.976 181.26 228.17 180.885 228.323C180.51 228.469 180.056 228.542 179.521 228.542C178.826 228.542 178.188 228.399 177.604 228.115C177.028 227.83 176.566 227.434 176.219 226.927C175.872 226.413 175.698 225.823 175.698 225.156C175.698 224.573 175.802 224.052 176.01 223.594C176.226 223.135 176.549 222.747 176.979 222.427C177.41 222.108 177.958 221.865 178.625 221.698C179.292 221.531 180.076 221.448 180.979 221.448H182.49ZM192.302 225.833C192.628 225.833 192.906 225.774 193.135 225.656C193.372 225.531 193.549 225.358 193.667 225.135C193.792 224.906 193.851 224.632 193.844 224.312H197.146C197.153 225.16 196.944 225.903 196.521 226.542C196.104 227.174 195.535 227.667 194.812 228.021C194.097 228.368 193.288 228.542 192.385 228.542C191.503 228.542 190.733 228.399 190.073 228.115C189.413 227.823 188.861 227.42 188.417 226.906C187.979 226.385 187.649 225.778 187.427 225.083C187.212 224.389 187.104 223.635 187.104 222.823V222.583C187.104 221.771 187.212 221.017 187.427 220.323C187.649 219.622 187.979 219.014 188.417 218.5C188.861 217.979 189.41 217.576 190.062 217.292C190.722 217 191.49 216.854 192.365 216.854C193.302 216.854 194.128 217.031 194.844 217.385C195.566 217.74 196.132 218.253 196.542 218.927C196.951 219.601 197.153 220.417 197.146 221.375H193.844C193.851 221.035 193.799 220.729 193.687 220.458C193.576 220.187 193.403 219.972 193.167 219.812C192.937 219.646 192.642 219.562 192.281 219.562C191.92 219.562 191.628 219.642 191.406 219.802C191.184 219.962 191.014 220.184 190.896 220.469C190.785 220.747 190.708 221.066 190.667 221.427C190.632 221.788 190.615 222.174 190.615 222.583V222.823C190.615 223.24 190.632 223.632 190.667 224C190.708 224.361 190.788 224.681 190.906 224.958C191.024 225.229 191.194 225.444 191.417 225.604C191.639 225.757 191.934 225.833 192.302 225.833ZM204.583 217.062V219.5H197.792V217.062H204.583ZM199.219 214.26H202.729V224.656C202.729 224.955 202.764 225.187 202.833 225.354C202.903 225.514 203.021 225.628 203.188 225.698C203.361 225.76 203.59 225.792 203.875 225.792C204.076 225.792 204.243 225.788 204.375 225.781C204.507 225.767 204.632 225.75 204.75 225.729V228.24C204.451 228.337 204.139 228.41 203.813 228.458C203.486 228.514 203.139 228.542 202.771 228.542C202.021 228.542 201.378 228.424 200.844 228.187C200.316 227.951 199.913 227.58 199.635 227.073C199.358 226.566 199.219 225.906 199.219 225.094V214.26ZM224.125 213.167V228.333H220.479L215.115 218.896V228.333H211.458V213.167H215.115L220.479 222.604V213.167H224.125ZM232.125 225.5V220.854C232.125 220.535 232.08 220.26 231.99 220.031C231.899 219.802 231.757 219.625 231.563 219.5C231.368 219.368 231.108 219.302 230.781 219.302C230.517 219.302 230.292 219.347 230.104 219.437C229.917 219.528 229.774 219.663 229.677 219.844C229.58 220.024 229.531 220.253 229.531 220.531H226.021C226.021 220.01 226.135 219.528 226.365 219.083C226.601 218.632 226.934 218.24 227.365 217.906C227.802 217.573 228.323 217.316 228.927 217.135C229.538 216.948 230.219 216.854 230.969 216.854C231.865 216.854 232.663 217.003 233.365 217.302C234.073 217.601 234.632 218.049 235.042 218.646C235.451 219.236 235.656 219.979 235.656 220.875V225.49C235.656 226.226 235.698 226.785 235.781 227.167C235.865 227.542 235.983 227.872 236.135 228.156V228.333H232.615C232.448 227.986 232.323 227.562 232.24 227.062C232.163 226.556 232.125 226.035 232.125 225.5ZM232.552 221.448L232.573 223.323H231.021C230.694 223.323 230.417 223.368 230.188 223.458C229.965 223.549 229.785 223.674 229.646 223.833C229.514 223.986 229.417 224.16 229.354 224.354C229.299 224.549 229.271 224.753 229.271 224.969C229.271 225.177 229.319 225.365 229.417 225.531C229.521 225.691 229.66 225.816 229.833 225.906C230.007 225.997 230.201 226.042 230.417 226.042C230.806 226.042 231.135 225.969 231.406 225.823C231.684 225.67 231.896 225.486 232.042 225.271C232.188 225.056 232.26 224.854 232.26 224.667L233.031 226.104C232.892 226.382 232.733 226.663 232.552 226.948C232.378 227.233 232.16 227.497 231.896 227.74C231.639 227.976 231.323 228.17 230.948 228.323C230.573 228.469 230.118 228.542 229.583 228.542C228.889 228.542 228.25 228.399 227.667 228.115C227.09 227.83 226.628 227.434 226.281 226.927C225.934 226.413 225.76 225.823 225.76 225.156C225.76 224.573 225.865 224.052 226.073 223.594C226.288 223.135 226.611 222.747 227.042 222.427C227.472 222.108 228.021 221.865 228.688 221.698C229.354 221.531 230.139 221.448 231.042 221.448H232.552ZM243.542 217.062V219.5H236.75V217.062H243.542ZM238.177 214.26H241.687V224.656C241.687 224.955 241.722 225.187 241.792 225.354C241.861 225.514 241.979 225.628 242.146 225.698C242.319 225.76 242.549 225.792 242.833 225.792C243.035 225.792 243.201 225.788 243.333 225.781C243.465 225.767 243.59 225.75 243.708 225.729V228.24C243.41 228.337 243.097 228.41 242.771 228.458C242.444 228.514 242.097 228.542 241.729 228.542C240.979 228.542 240.337 228.424 239.802 228.187C239.274 227.951 238.872 227.58 238.594 227.073C238.316 226.566 238.177 225.906 238.177 225.094V214.26ZM248.646 217.062V228.333H245.125V217.062H248.646ZM244.917 214.156C244.917 213.656 245.097 213.247 245.458 212.927C245.819 212.608 246.288 212.448 246.865 212.448C247.441 212.448 247.91 212.608 248.271 212.927C248.632 213.247 248.813 213.656 248.813 214.156C248.813 214.656 248.632 215.066 248.271 215.385C247.91 215.705 247.441 215.865 246.865 215.865C246.288 215.865 245.819 215.705 245.458 215.385C245.097 215.066 244.917 214.656 244.917 214.156ZM254.875 225.927L257.094 217.062H260.792L257.104 228.333H254.917L254.875 225.927ZM253.563 217.062L255.75 225.927L255.729 228.333H253.531L249.854 217.062H253.563ZM267.146 228.542C266.229 228.542 265.41 228.399 264.688 228.115C263.965 227.823 263.354 227.424 262.854 226.917C262.361 226.41 261.983 225.826 261.719 225.167C261.462 224.507 261.333 223.809 261.333 223.073V222.677C261.333 221.851 261.448 221.087 261.677 220.385C261.906 219.677 262.247 219.059 262.698 218.531C263.149 218.003 263.715 217.594 264.396 217.302C265.076 217.003 265.868 216.854 266.771 216.854C267.569 216.854 268.285 216.983 268.917 217.24C269.549 217.497 270.083 217.865 270.521 218.344C270.965 218.823 271.302 219.403 271.531 220.083C271.767 220.764 271.885 221.528 271.885 222.375V223.802H262.677V221.604H268.458V221.333C268.465 220.958 268.399 220.639 268.26 220.375C268.128 220.111 267.934 219.91 267.677 219.771C267.42 219.632 267.108 219.562 266.74 219.562C266.358 219.562 266.042 219.646 265.792 219.812C265.549 219.979 265.358 220.208 265.219 220.5C265.087 220.785 264.993 221.115 264.938 221.49C264.882 221.865 264.854 222.26 264.854 222.677V223.073C264.854 223.49 264.91 223.868 265.021 224.208C265.139 224.549 265.306 224.84 265.521 225.083C265.743 225.319 266.007 225.503 266.313 225.635C266.625 225.767 266.979 225.833 267.375 225.833C267.854 225.833 268.326 225.743 268.792 225.562C269.257 225.382 269.656 225.083 269.99 224.667L271.583 226.562C271.354 226.889 271.028 227.205 270.604 227.51C270.188 227.816 269.688 228.066 269.104 228.26C268.521 228.448 267.868 228.542 267.146 228.542Z" fill="white"/>
<rect x="339" y="196.333" width="208" height="49.3333" rx="4.66667" fill="#888888" stroke="#888888" stroke-width="4"/>
<path d="M412.729 216.354L409.031 228.333H405.104L410.677 213.167H413.167L412.729 216.354ZM415.792 228.333L412.083 216.354L411.604 213.167H414.125L419.729 228.333H415.792ZM415.646 222.677V225.5H407.865V222.677H415.646ZM423.625 219.469V228.333H420.115V217.062H423.406L423.625 219.469ZM423.208 222.312L422.385 222.333C422.385 221.472 422.49 220.705 422.698 220.031C422.906 219.351 423.201 218.774 423.583 218.302C423.965 217.83 424.42 217.472 424.948 217.229C425.483 216.979 426.076 216.854 426.729 216.854C427.25 216.854 427.726 216.931 428.156 217.083C428.594 217.236 428.969 217.483 429.281 217.823C429.601 218.163 429.844 218.615 430.01 219.177C430.184 219.733 430.271 220.42 430.271 221.24V228.333H426.74V221.229C426.74 220.778 426.677 220.434 426.552 220.198C426.427 219.955 426.247 219.788 426.01 219.698C425.774 219.608 425.486 219.562 425.146 219.562C424.785 219.562 424.479 219.632 424.229 219.771C423.979 219.91 423.778 220.104 423.625 220.354C423.479 220.597 423.372 220.885 423.302 221.219C423.24 221.552 423.208 221.917 423.208 222.312ZM439.302 217.062H442.49V227.896C442.49 228.937 442.25 229.819 441.771 230.542C441.292 231.271 440.622 231.823 439.76 232.198C438.906 232.58 437.906 232.771 436.76 232.771C436.253 232.771 435.736 232.705 435.208 232.573C434.681 232.448 434.187 232.26 433.729 232.01C433.271 231.76 432.885 231.451 432.573 231.083L434.042 229.021C434.326 229.34 434.684 229.611 435.115 229.833C435.545 230.062 436.052 230.177 436.635 230.177C437.142 230.177 437.566 230.087 437.906 229.906C438.253 229.726 438.517 229.462 438.698 229.115C438.878 228.774 438.969 228.361 438.969 227.875V219.729L439.302 217.062ZM431.812 222.833V222.615C431.812 221.76 431.917 220.983 432.125 220.281C432.34 219.573 432.646 218.965 433.042 218.458C433.444 217.944 433.931 217.549 434.5 217.271C435.069 216.993 435.712 216.854 436.427 216.854C437.198 216.854 437.83 217.003 438.323 217.302C438.823 217.594 439.222 218.003 439.521 218.531C439.826 219.059 440.062 219.677 440.229 220.385C440.403 221.087 440.549 221.844 440.667 222.656V222.917C440.549 223.681 440.385 224.403 440.177 225.083C439.976 225.757 439.712 226.354 439.385 226.875C439.059 227.396 438.649 227.806 438.156 228.104C437.67 228.396 437.087 228.542 436.406 228.542C435.698 228.542 435.059 228.399 434.49 228.115C433.927 227.83 433.444 227.431 433.042 226.917C432.646 226.403 432.34 225.799 432.125 225.104C431.917 224.41 431.812 223.653 431.812 222.833ZM435.323 222.615V222.833C435.323 223.257 435.361 223.649 435.437 224.01C435.521 224.372 435.646 224.691 435.812 224.969C435.979 225.24 436.184 225.451 436.427 225.604C436.677 225.757 436.969 225.833 437.302 225.833C437.809 225.833 438.219 225.726 438.531 225.51C438.844 225.295 439.069 224.99 439.208 224.594C439.347 224.198 439.406 223.733 439.385 223.198V222.375C439.399 221.917 439.368 221.514 439.292 221.167C439.215 220.812 439.094 220.517 438.927 220.281C438.767 220.045 438.552 219.868 438.281 219.75C438.017 219.625 437.698 219.562 437.323 219.562C436.997 219.562 436.708 219.639 436.458 219.792C436.208 219.944 436 220.16 435.833 220.437C435.667 220.708 435.538 221.031 435.448 221.406C435.365 221.774 435.323 222.177 435.323 222.615ZM451.094 225.594V217.062H454.615V228.333H451.323L451.094 225.594ZM451.427 223.302L452.344 223.281C452.344 224.038 452.253 224.74 452.073 225.385C451.892 226.024 451.625 226.58 451.271 227.052C450.924 227.524 450.493 227.892 449.979 228.156C449.472 228.413 448.885 228.542 448.219 228.542C447.663 228.542 447.153 228.465 446.687 228.312C446.229 228.153 445.833 227.906 445.5 227.573C445.167 227.233 444.906 226.799 444.719 226.271C444.538 225.736 444.448 225.097 444.448 224.354V217.062H447.958V224.375C447.958 224.625 447.99 224.84 448.052 225.021C448.115 225.201 448.205 225.354 448.323 225.479C448.441 225.597 448.587 225.687 448.76 225.75C448.941 225.806 449.146 225.833 449.375 225.833C449.903 225.833 450.316 225.722 450.615 225.5C450.913 225.278 451.122 224.976 451.24 224.594C451.365 224.212 451.427 223.781 451.427 223.302ZM460.26 212.333V228.333H456.74V212.333H460.26ZM468.281 225.5V220.854C468.281 220.535 468.236 220.26 468.146 220.031C468.056 219.802 467.913 219.625 467.719 219.5C467.524 219.368 467.264 219.302 466.938 219.302C466.674 219.302 466.448 219.347 466.26 219.437C466.073 219.528 465.931 219.663 465.833 219.844C465.736 220.024 465.688 220.253 465.688 220.531H462.177C462.177 220.01 462.292 219.528 462.521 219.083C462.757 218.632 463.09 218.24 463.521 217.906C463.958 217.573 464.479 217.316 465.083 217.135C465.694 216.948 466.375 216.854 467.125 216.854C468.021 216.854 468.819 217.003 469.521 217.302C470.229 217.601 470.788 218.049 471.198 218.646C471.608 219.236 471.813 219.979 471.813 220.875V225.49C471.813 226.226 471.854 226.785 471.938 227.167C472.021 227.542 472.139 227.872 472.292 228.156V228.333H468.771C468.604 227.986 468.479 227.562 468.396 227.062C468.319 226.556 468.281 226.035 468.281 225.5ZM468.708 221.448L468.729 223.323H467.177C466.851 223.323 466.573 223.368 466.344 223.458C466.122 223.549 465.941 223.674 465.802 223.833C465.67 223.986 465.573 224.16 465.51 224.354C465.455 224.549 465.427 224.753 465.427 224.969C465.427 225.177 465.476 225.365 465.573 225.531C465.677 225.691 465.816 225.816 465.99 225.906C466.163 225.997 466.358 226.042 466.573 226.042C466.962 226.042 467.292 225.969 467.563 225.823C467.84 225.67 468.052 225.486 468.198 225.271C468.344 225.056 468.417 224.854 468.417 224.667L469.188 226.104C469.049 226.382 468.889 226.663 468.708 226.948C468.535 227.233 468.316 227.497 468.052 227.74C467.795 227.976 467.479 228.17 467.104 228.323C466.729 228.469 466.274 228.542 465.74 228.542C465.045 228.542 464.406 228.399 463.823 228.115C463.247 227.83 462.785 227.434 462.438 226.927C462.09 226.413 461.917 225.823 461.917 225.156C461.917 224.573 462.021 224.052 462.229 223.594C462.444 223.135 462.767 222.747 463.198 222.427C463.628 222.108 464.177 221.865 464.844 221.698C465.51 221.531 466.295 221.448 467.198 221.448H468.708ZM477.302 219.854V228.333H473.792V217.062H477.073L477.302 219.854ZM480.635 216.979L480.573 220.24C480.434 220.226 480.247 220.208 480.01 220.187C479.774 220.167 479.576 220.156 479.417 220.156C479.007 220.156 478.653 220.205 478.354 220.302C478.062 220.392 477.819 220.531 477.625 220.719C477.437 220.899 477.299 221.128 477.208 221.406C477.125 221.684 477.087 222.007 477.094 222.375L476.458 221.958C476.458 221.201 476.531 220.514 476.677 219.896C476.83 219.271 477.045 218.733 477.323 218.281C477.601 217.823 477.937 217.472 478.333 217.229C478.729 216.979 479.174 216.854 479.667 216.854C479.84 216.854 480.01 216.865 480.177 216.885C480.351 216.906 480.503 216.937 480.635 216.979Z" fill="white"/>
<rect x="571" y="196.333" width="208" height="49.3333" rx="4.66667" fill="#888888" stroke="#888888" stroke-width="4"/>
<path d="M651.073 225.521V228.333H643.406V225.521H651.073ZM644.708 213.167V228.333H641.052V213.167H644.708ZM658.302 225.5V220.854C658.302 220.535 658.257 220.26 658.167 220.031C658.076 219.802 657.934 219.625 657.74 219.5C657.545 219.368 657.285 219.302 656.958 219.302C656.694 219.302 656.469 219.347 656.281 219.437C656.094 219.528 655.951 219.663 655.854 219.844C655.757 220.024 655.708 220.253 655.708 220.531H652.198C652.198 220.01 652.312 219.528 652.542 219.083C652.778 218.632 653.111 218.24 653.542 217.906C653.979 217.573 654.5 217.316 655.104 217.135C655.715 216.948 656.396 216.854 657.146 216.854C658.042 216.854 658.84 217.003 659.542 217.302C660.25 217.601 660.809 218.049 661.219 218.646C661.628 219.236 661.833 219.979 661.833 220.875V225.49C661.833 226.226 661.875 226.785 661.958 227.167C662.042 227.542 662.16 227.872 662.312 228.156V228.333H658.792C658.625 227.986 658.5 227.562 658.417 227.062C658.34 226.556 658.302 226.035 658.302 225.5ZM658.729 221.448L658.75 223.323H657.198C656.872 223.323 656.594 223.368 656.365 223.458C656.142 223.549 655.962 223.674 655.823 223.833C655.691 223.986 655.594 224.16 655.531 224.354C655.476 224.549 655.448 224.753 655.448 224.969C655.448 225.177 655.497 225.365 655.594 225.531C655.698 225.691 655.837 225.816 656.01 225.906C656.184 225.997 656.378 226.042 656.594 226.042C656.983 226.042 657.312 225.969 657.583 225.823C657.861 225.67 658.073 225.486 658.219 225.271C658.365 225.056 658.437 224.854 658.437 224.667L659.208 226.104C659.069 226.382 658.91 226.663 658.729 226.948C658.556 227.233 658.337 227.497 658.073 227.74C657.816 227.976 657.5 228.17 657.125 228.323C656.75 228.469 656.295 228.542 655.76 228.542C655.066 228.542 654.427 228.399 653.844 228.115C653.267 227.83 652.806 227.434 652.458 226.927C652.111 226.413 651.937 225.823 651.937 225.156C651.937 224.573 652.042 224.052 652.25 223.594C652.465 223.135 652.788 222.747 653.219 222.427C653.649 222.108 654.198 221.865 654.865 221.698C655.531 221.531 656.316 221.448 657.219 221.448H658.729ZM667.323 219.854V228.333H663.812V217.062H667.094L667.323 219.854ZM670.656 216.979L670.594 220.24C670.455 220.226 670.267 220.208 670.031 220.187C669.795 220.167 669.597 220.156 669.437 220.156C669.028 220.156 668.674 220.205 668.375 220.302C668.083 220.392 667.84 220.531 667.646 220.719C667.458 220.899 667.319 221.128 667.229 221.406C667.146 221.684 667.108 222.007 667.115 222.375L666.479 221.958C666.479 221.201 666.552 220.514 666.698 219.896C666.851 219.271 667.066 218.733 667.344 218.281C667.622 217.823 667.958 217.472 668.354 217.229C668.75 216.979 669.194 216.854 669.687 216.854C669.861 216.854 670.031 216.865 670.198 216.885C670.372 216.906 670.524 216.937 670.656 216.979ZM677.406 225.5V220.854C677.406 220.535 677.361 220.26 677.271 220.031C677.181 219.802 677.038 219.625 676.844 219.5C676.649 219.368 676.389 219.302 676.063 219.302C675.799 219.302 675.573 219.347 675.385 219.437C675.198 219.528 675.056 219.663 674.958 219.844C674.861 220.024 674.813 220.253 674.813 220.531H671.302C671.302 220.01 671.417 219.528 671.646 219.083C671.882 218.632 672.215 218.24 672.646 217.906C673.083 217.573 673.604 217.316 674.208 217.135C674.819 216.948 675.5 216.854 676.25 216.854C677.146 216.854 677.944 217.003 678.646 217.302C679.354 217.601 679.913 218.049 680.323 218.646C680.733 219.236 680.938 219.979 680.938 220.875V225.49C680.938 226.226 680.979 226.785 681.063 227.167C681.146 227.542 681.264 227.872 681.417 228.156V228.333H677.896C677.729 227.986 677.604 227.562 677.521 227.062C677.444 226.556 677.406 226.035 677.406 225.5ZM677.833 221.448L677.854 223.323H676.302C675.976 223.323 675.698 223.368 675.469 223.458C675.247 223.549 675.066 223.674 674.927 223.833C674.795 223.986 674.698 224.16 674.635 224.354C674.58 224.549 674.552 224.753 674.552 224.969C674.552 225.177 674.601 225.365 674.698 225.531C674.802 225.691 674.941 225.816 675.115 225.906C675.288 225.997 675.483 226.042 675.698 226.042C676.087 226.042 676.417 225.969 676.688 225.823C676.965 225.67 677.177 225.486 677.323 225.271C677.469 225.056 677.542 224.854 677.542 224.667L678.313 226.104C678.174 226.382 678.014 226.663 677.833 226.948C677.66 227.233 677.441 227.497 677.177 227.74C676.92 227.976 676.604 228.17 676.229 228.323C675.854 228.469 675.399 228.542 674.865 228.542C674.17 228.542 673.531 228.399 672.948 228.115C672.372 227.83 671.91 227.434 671.563 226.927C671.215 226.413 671.042 225.823 671.042 225.156C671.042 224.573 671.146 224.052 671.354 223.594C671.569 223.135 671.892 222.747 672.323 222.427C672.753 222.108 673.302 221.865 673.969 221.698C674.635 221.531 675.42 221.448 676.323 221.448H677.833ZM686.781 225.927L689 217.062H692.698L689.01 228.333H686.823L686.781 225.927ZM685.469 217.062L687.656 225.927L687.635 228.333H685.437L681.76 217.062H685.469ZM699.052 228.542C698.135 228.542 697.316 228.399 696.594 228.115C695.872 227.823 695.26 227.424 694.76 226.917C694.267 226.41 693.889 225.826 693.625 225.167C693.368 224.507 693.24 223.809 693.24 223.073V222.677C693.24 221.851 693.354 221.087 693.583 220.385C693.812 219.677 694.153 219.059 694.604 218.531C695.056 218.003 695.622 217.594 696.302 217.302C696.983 217.003 697.774 216.854 698.677 216.854C699.476 216.854 700.191 216.983 700.823 217.24C701.455 217.497 701.99 217.865 702.427 218.344C702.872 218.823 703.208 219.403 703.437 220.083C703.674 220.764 703.792 221.528 703.792 222.375V223.802H694.583V221.604H700.365V221.333C700.372 220.958 700.306 220.639 700.167 220.375C700.035 220.111 699.84 219.91 699.583 219.771C699.326 219.632 699.014 219.562 698.646 219.562C698.264 219.562 697.948 219.646 697.698 219.812C697.455 219.979 697.264 220.208 697.125 220.5C696.993 220.785 696.899 221.115 696.844 221.49C696.788 221.865 696.76 222.26 696.76 222.677V223.073C696.76 223.49 696.816 223.868 696.927 224.208C697.045 224.549 697.212 224.84 697.427 225.083C697.649 225.319 697.913 225.503 698.219 225.635C698.531 225.767 698.885 225.833 699.281 225.833C699.76 225.833 700.233 225.743 700.698 225.562C701.163 225.382 701.562 225.083 701.896 224.667L703.49 226.562C703.26 226.889 702.934 227.205 702.51 227.51C702.094 227.816 701.594 228.066 701.01 228.26C700.427 228.448 699.774 228.542 699.052 228.542ZM708.927 212.333V228.333H705.406V212.333H708.927Z" fill="white"/>
<rect x="803" y="196.333" width="208" height="49.3333" rx="4.66667" fill="#888888" stroke="#888888" stroke-width="4"/>
<path d="M875.26 213.167H878.24L881.625 223.719L885.01 213.167H887.99L882.833 228.333H880.417L875.26 213.167ZM873.448 213.167H876.531L877.104 224.792V228.333H873.448V213.167ZM886.719 213.167H889.812V228.333H886.146V224.792L886.719 213.167ZM895.448 227.01L898.365 217.062H902.135L897.604 230.01C897.507 230.295 897.378 230.601 897.219 230.927C897.059 231.26 896.84 231.576 896.563 231.875C896.285 232.174 895.927 232.417 895.49 232.604C895.059 232.792 894.524 232.885 893.885 232.885C893.545 232.885 893.295 232.868 893.135 232.833C892.983 232.806 892.747 232.753 892.427 232.677V230.167C892.517 230.167 892.594 230.167 892.656 230.167C892.726 230.167 892.802 230.167 892.885 230.167C893.26 230.167 893.559 230.128 893.781 230.052C894.01 229.976 894.184 229.865 894.302 229.719C894.427 229.573 894.524 229.396 894.594 229.187L895.448 227.01ZM894.708 217.062L896.927 224.948L897.313 228.667H894.958L890.948 217.062H894.708ZM911.031 224.302C911.031 224.066 910.997 223.854 910.927 223.667C910.858 223.472 910.729 223.292 910.542 223.125C910.354 222.958 910.083 222.792 909.729 222.625C909.382 222.451 908.924 222.271 908.354 222.083C907.688 221.861 907.045 221.611 906.427 221.333C905.809 221.049 905.257 220.719 904.771 220.344C904.285 219.962 903.899 219.517 903.615 219.01C903.33 218.497 903.188 217.899 903.188 217.219C903.188 216.566 903.333 215.979 903.625 215.458C903.917 214.931 904.323 214.483 904.844 214.115C905.372 213.74 905.99 213.455 906.698 213.26C907.406 213.059 908.181 212.958 909.021 212.958C910.132 212.958 911.111 213.153 911.958 213.542C912.813 213.924 913.479 214.469 913.958 215.177C914.444 215.878 914.688 216.708 914.688 217.667H911.052C911.052 217.285 910.972 216.948 910.813 216.656C910.66 216.365 910.427 216.135 910.115 215.969C909.802 215.802 909.41 215.719 908.938 215.719C908.479 215.719 908.094 215.788 907.781 215.927C907.469 216.066 907.233 216.253 907.073 216.49C906.913 216.719 906.833 216.972 906.833 217.25C906.833 217.479 906.896 217.687 907.021 217.875C907.153 218.056 907.337 218.226 907.573 218.385C907.816 218.545 908.108 218.698 908.448 218.844C908.795 218.99 909.184 219.132 909.615 219.271C910.42 219.528 911.135 219.816 911.76 220.135C912.392 220.448 912.924 220.806 913.354 221.208C913.792 221.604 914.122 222.056 914.344 222.562C914.573 223.069 914.688 223.642 914.688 224.281C914.688 224.962 914.556 225.566 914.292 226.094C914.028 226.622 913.649 227.069 913.156 227.437C912.663 227.799 912.073 228.073 911.385 228.26C910.698 228.448 909.931 228.542 909.083 228.542C908.306 228.542 907.538 228.444 906.781 228.25C906.031 228.049 905.351 227.743 904.74 227.333C904.128 226.917 903.639 226.385 903.271 225.74C902.91 225.087 902.729 224.312 902.729 223.417H906.396C906.396 223.861 906.455 224.236 906.573 224.542C906.691 224.847 906.865 225.094 907.094 225.281C907.323 225.462 907.604 225.594 907.938 225.677C908.271 225.753 908.653 225.792 909.083 225.792C909.549 225.792 909.924 225.726 910.208 225.594C910.493 225.455 910.701 225.274 910.833 225.052C910.965 224.823 911.031 224.573 911.031 224.302ZM925.031 225.833L929.26 229.187L926.99 231.104L922.833 227.75L925.031 225.833ZM929.437 220.448V221.062C929.437 222.222 929.274 223.264 928.948 224.187C928.628 225.104 928.17 225.889 927.573 226.542C926.983 227.187 926.285 227.684 925.479 228.031C924.674 228.372 923.785 228.542 922.812 228.542C921.833 228.542 920.937 228.372 920.125 228.031C919.319 227.684 918.618 227.187 918.021 226.542C917.431 225.889 916.972 225.104 916.646 224.187C916.326 223.264 916.167 222.222 916.167 221.062V220.448C916.167 219.288 916.326 218.247 916.646 217.323C916.972 216.399 917.427 215.615 918.01 214.969C918.601 214.316 919.299 213.819 920.104 213.479C920.917 213.132 921.812 212.958 922.792 212.958C923.764 212.958 924.653 213.132 925.458 213.479C926.271 213.819 926.972 214.316 927.562 214.969C928.16 215.615 928.622 216.399 928.948 217.323C929.274 218.247 929.437 219.288 929.437 220.448ZM925.719 221.062V220.427C925.719 219.677 925.653 219.017 925.521 218.448C925.396 217.872 925.208 217.389 924.958 217C924.708 216.611 924.399 216.319 924.031 216.125C923.67 215.924 923.257 215.823 922.792 215.823C922.306 215.823 921.882 215.924 921.521 216.125C921.16 216.319 920.858 216.611 920.615 217C920.372 217.389 920.187 217.872 920.062 218.448C919.944 219.017 919.885 219.677 919.885 220.427V221.062C919.885 221.806 919.944 222.465 920.062 223.042C920.187 223.611 920.372 224.094 920.615 224.49C920.865 224.885 921.17 225.184 921.531 225.385C921.899 225.587 922.326 225.687 922.812 225.687C923.278 225.687 923.691 225.587 924.052 225.385C924.413 225.184 924.715 224.885 924.958 224.49C925.208 224.094 925.396 223.611 925.521 223.042C925.653 222.465 925.719 221.806 925.719 221.062ZM941.323 225.521V228.333H933.656V225.521H941.323ZM934.958 213.167V228.333H931.302V213.167H934.958Z" fill="white"/>
<rect x="1035" y="196.333" width="208" height="49.3333" rx="4.66667" fill="#888888" stroke="#888888" stroke-width="4"/>
<path d="M1114.84 213.167V228.333H1111.2L1105.83 218.896V228.333H1102.18V213.167H1105.83L1111.2 222.604V213.167H1114.84ZM1116.55 222.812V222.594C1116.55 221.767 1116.67 221.007 1116.91 220.312C1117.14 219.611 1117.49 219.003 1117.95 218.49C1118.41 217.976 1118.97 217.576 1119.65 217.292C1120.32 217 1121.1 216.854 1121.98 216.854C1122.87 216.854 1123.65 217 1124.32 217.292C1125 217.576 1125.57 217.976 1126.03 218.49C1126.49 219.003 1126.84 219.611 1127.07 220.312C1127.31 221.007 1127.43 221.767 1127.43 222.594V222.812C1127.43 223.632 1127.31 224.392 1127.07 225.094C1126.84 225.788 1126.49 226.396 1126.03 226.917C1125.57 227.431 1125.01 227.83 1124.33 228.115C1123.66 228.399 1122.88 228.542 1122 228.542C1121.12 228.542 1120.34 228.399 1119.66 228.115C1118.98 227.83 1118.41 227.431 1117.95 226.917C1117.49 226.396 1117.14 225.788 1116.91 225.094C1116.67 224.392 1116.55 223.632 1116.55 222.812ZM1120.06 222.594V222.812C1120.06 223.236 1120.09 223.632 1120.16 224C1120.22 224.368 1120.32 224.691 1120.47 224.969C1120.61 225.24 1120.81 225.451 1121.06 225.604C1121.31 225.757 1121.62 225.833 1122 225.833C1122.37 225.833 1122.67 225.757 1122.92 225.604C1123.17 225.451 1123.36 225.24 1123.51 224.969C1123.66 224.691 1123.76 224.368 1123.82 224C1123.89 223.632 1123.92 223.236 1123.92 222.812V222.594C1123.92 222.184 1123.89 221.799 1123.82 221.437C1123.76 221.069 1123.66 220.747 1123.51 220.469C1123.36 220.184 1123.17 219.962 1122.92 219.802C1122.67 219.642 1122.35 219.562 1121.98 219.562C1121.61 219.562 1121.3 219.642 1121.05 219.802C1120.81 219.962 1120.61 220.184 1120.47 220.469C1120.32 220.747 1120.22 221.069 1120.16 221.437C1120.09 221.799 1120.06 222.184 1120.06 222.594ZM1135.47 225.75V212.333H1139V228.333H1135.83L1135.47 225.75ZM1128.55 222.833V222.615C1128.55 221.76 1128.65 220.983 1128.83 220.281C1129.02 219.573 1129.3 218.965 1129.67 218.458C1130.03 217.944 1130.49 217.549 1131.04 217.271C1131.59 216.993 1132.22 216.854 1132.94 216.854C1133.58 216.854 1134.14 217.003 1134.61 217.302C1135.09 217.594 1135.5 218.003 1135.84 218.531C1136.18 219.059 1136.46 219.677 1136.68 220.385C1136.89 221.087 1137.06 221.844 1137.17 222.656V222.917C1137.06 223.681 1136.89 224.403 1136.68 225.083C1136.46 225.757 1136.18 226.354 1135.84 226.875C1135.5 227.396 1135.09 227.806 1134.6 228.104C1134.13 228.396 1133.56 228.542 1132.92 228.542C1132.2 228.542 1131.57 228.399 1131.02 228.115C1130.48 227.83 1130.02 227.431 1129.66 226.917C1129.3 226.403 1129.02 225.799 1128.83 225.104C1128.65 224.41 1128.55 223.653 1128.55 222.833ZM1132.06 222.615V222.833C1132.06 223.257 1132.09 223.649 1132.15 224.01C1132.2 224.372 1132.3 224.691 1132.43 224.969C1132.57 225.24 1132.75 225.451 1132.97 225.604C1133.2 225.757 1133.48 225.833 1133.81 225.833C1134.26 225.833 1134.64 225.726 1134.93 225.51C1135.23 225.295 1135.44 224.99 1135.58 224.594C1135.73 224.198 1135.79 223.733 1135.77 223.198V222.375C1135.78 221.917 1135.75 221.514 1135.68 221.167C1135.6 220.812 1135.48 220.517 1135.31 220.281C1135.15 220.045 1134.95 219.868 1134.7 219.75C1134.45 219.625 1134.17 219.562 1133.83 219.562C1133.51 219.562 1133.23 219.639 1133 219.792C1132.78 219.944 1132.6 220.16 1132.46 220.437C1132.32 220.708 1132.22 221.031 1132.16 221.406C1132.09 221.774 1132.06 222.177 1132.06 222.615ZM1146.45 228.542C1145.53 228.542 1144.71 228.399 1143.99 228.115C1143.27 227.823 1142.66 227.424 1142.16 226.917C1141.66 226.41 1141.28 225.826 1141.02 225.167C1140.76 224.507 1140.64 223.809 1140.64 223.073V222.677C1140.64 221.851 1140.75 221.087 1140.98 220.385C1141.21 219.677 1141.55 219.059 1142 218.531C1142.45 218.003 1143.02 217.594 1143.7 217.302C1144.38 217.003 1145.17 216.854 1146.07 216.854C1146.87 216.854 1147.59 216.983 1148.22 217.24C1148.85 217.497 1149.39 217.865 1149.82 218.344C1150.27 218.823 1150.6 219.403 1150.83 220.083C1151.07 220.764 1151.19 221.528 1151.19 222.375V223.802H1141.98V221.604H1147.76V221.333C1147.77 220.958 1147.7 220.639 1147.56 220.375C1147.43 220.111 1147.24 219.91 1146.98 219.771C1146.72 219.632 1146.41 219.562 1146.04 219.562C1145.66 219.562 1145.34 219.646 1145.09 219.812C1144.85 219.979 1144.66 220.208 1144.52 220.5C1144.39 220.785 1144.3 221.115 1144.24 221.49C1144.18 221.865 1144.16 222.26 1144.16 222.677V223.073C1144.16 223.49 1144.21 223.868 1144.32 224.208C1144.44 224.549 1144.61 224.84 1144.82 225.083C1145.05 225.319 1145.31 225.503 1145.61 225.635C1145.93 225.767 1146.28 225.833 1146.68 225.833C1147.16 225.833 1147.63 225.743 1148.09 225.562C1148.56 225.382 1148.96 225.083 1149.29 224.667L1150.89 226.562C1150.66 226.889 1150.33 227.205 1149.91 227.51C1149.49 227.816 1148.99 228.066 1148.41 228.26C1147.82 228.448 1147.17 228.542 1146.45 228.542ZM1158.81 223.573V213.167H1162.46V223.573C1162.46 224.587 1162.23 225.465 1161.76 226.208C1161.3 226.951 1160.68 227.528 1159.89 227.937C1159.1 228.34 1158.22 228.542 1157.24 228.542C1156.23 228.542 1155.32 228.372 1154.53 228.031C1153.75 227.691 1153.13 227.167 1152.68 226.458C1152.23 225.75 1152.01 224.847 1152.01 223.75H1155.68C1155.68 224.264 1155.74 224.667 1155.85 224.958C1155.97 225.243 1156.15 225.444 1156.38 225.562C1156.61 225.674 1156.9 225.729 1157.24 225.729C1157.57 225.729 1157.85 225.646 1158.08 225.479C1158.32 225.306 1158.5 225.059 1158.63 224.74C1158.75 224.413 1158.81 224.024 1158.81 223.573ZM1172.59 224.302C1172.59 224.066 1172.56 223.854 1172.49 223.667C1172.42 223.472 1172.29 223.292 1172.1 223.125C1171.92 222.958 1171.65 222.792 1171.29 222.625C1170.94 222.451 1170.49 222.271 1169.92 222.083C1169.25 221.861 1168.61 221.611 1167.99 221.333C1167.37 221.049 1166.82 220.719 1166.33 220.344C1165.85 219.962 1165.46 219.517 1165.18 219.01C1164.89 218.497 1164.75 217.899 1164.75 217.219C1164.75 216.566 1164.9 215.979 1165.19 215.458C1165.48 214.931 1165.89 214.483 1166.41 214.115C1166.93 213.74 1167.55 213.455 1168.26 213.26C1168.97 213.059 1169.74 212.958 1170.58 212.958C1171.69 212.958 1172.67 213.153 1173.52 213.542C1174.38 213.924 1175.04 214.469 1175.52 215.177C1176.01 215.878 1176.25 216.708 1176.25 217.667H1172.61C1172.61 217.285 1172.53 216.948 1172.38 216.656C1172.22 216.365 1171.99 216.135 1171.68 215.969C1171.36 215.802 1170.97 215.719 1170.5 215.719C1170.04 215.719 1169.66 215.788 1169.34 215.927C1169.03 216.066 1168.8 216.253 1168.64 216.49C1168.48 216.719 1168.4 216.972 1168.4 217.25C1168.4 217.479 1168.46 217.687 1168.58 217.875C1168.72 218.056 1168.9 218.226 1169.14 218.385C1169.38 218.545 1169.67 218.698 1170.01 218.844C1170.36 218.99 1170.75 219.132 1171.18 219.271C1171.98 219.528 1172.7 219.816 1173.32 220.135C1173.95 220.448 1174.49 220.806 1174.92 221.208C1175.35 221.604 1175.68 222.056 1175.91 222.562C1176.14 223.069 1176.25 223.642 1176.25 224.281C1176.25 224.962 1176.12 225.566 1175.85 226.094C1175.59 226.622 1175.21 227.069 1174.72 227.437C1174.23 227.799 1173.64 228.073 1172.95 228.26C1172.26 228.448 1171.49 228.542 1170.65 228.542C1169.87 228.542 1169.1 228.444 1168.34 228.25C1167.59 228.049 1166.91 227.743 1166.3 227.333C1165.69 226.917 1165.2 226.385 1164.83 225.74C1164.47 225.087 1164.29 224.312 1164.29 223.417H1167.96C1167.96 223.861 1168.02 224.236 1168.14 224.542C1168.25 224.847 1168.43 225.094 1168.66 225.281C1168.89 225.462 1169.17 225.594 1169.5 225.677C1169.83 225.753 1170.22 225.792 1170.65 225.792C1171.11 225.792 1171.49 225.726 1171.77 225.594C1172.06 225.455 1172.26 225.274 1172.4 225.052C1172.53 224.823 1172.59 224.573 1172.59 224.302Z" fill="white"/>
</svg>
